<?xml version="1.0" encoding="UTF-8"?>
<svg width="138px" height="100px" viewBox="0 0 138 100" version="1.1" xmlns="http://www.w3.org/2000/svg" xmlns:xlink="http://www.w3.org/1999/xlink">
    <!-- Generator: sketchtool 51.3 (57544) - http://www.bohemiancoding.com/sketch -->
    <title>984D0C0F-6AD2-4353-B8EB-B896522BEFC1</title>
    <desc>Created with sketchtool.</desc>
    <defs></defs>
    <g id="Page-1" stroke="none" stroke-width="1" fill="none" fill-rule="evenodd" opacity="0.1">
        <g id="all" transform="translate(-377.000000, -973.000000)">
            <g id="Block_2" transform="translate(0.000000, 877.000000)">
                <g id="block_2_tile_1" transform="translate(165.000000, 96.000000)">
                    <g id="ic_block_2_job_seeker">
                        <g id="Group">
                            <g id="Group-7">
                                <g id="img_">
                                    <g id="Group" transform="translate(208.000000, -47.000000)">
                                        <path d="M41.4735222,109.44 C50.6492444,109.44 58.1141444,101.955349 58.1141444,92.7553488 C58.1141444,83.5553488 50.6492444,76.0706977 41.4735222,76.0706977 C32.2978,76.0706977 24.8329,83.5553488 24.8329,92.7553488 C24.8329,101.955349 32.2978,109.44 41.4735222,109.44 Z" id="Shape"></path>
                                        <path d="M150.7509,6.22139535 L78.2005333,6.22139535 C72.3833667,6.22139535 67.6498444,10.9674419 67.6498444,16.8018605 L67.6498444,65.44 C67.6498444,71.2725581 72.3833667,76.0204651 78.2005333,76.0204651 L87.5098556,76.0204651 L100.864289,90.9004651 C103.610511,87.6930233 108.607522,81.9404651 113.324344,76.9190698 L114.166767,76.0204651 L150.7509,76.0204651 C156.568067,76.0204651 161.301589,71.2744186 161.301589,65.44 L161.301589,16.8 C161.303444,10.9674419 156.569922,6.22139535 150.7509,6.22139535 Z" id="Shape"></path>
                                        <path d="M19.1363444,92.7553488 C19.1363444,105.105116 29.1563444,115.151628 41.4735222,115.151628 C53.7907,115.151628 63.8107,105.105116 63.8107,92.7553488 C63.8107,80.4055814 53.7907,70.3590698 41.4735222,70.3590698 C29.1563444,70.3590698 19.1363444,80.4074419 19.1363444,92.7553488 Z M41.4735222,76.0725581 C50.6492444,76.0725581 58.1141444,83.5572093 58.1141444,92.7572093 C58.1141444,101.957209 50.6492444,109.44186 41.4735222,109.44186 C32.2978,109.44186 24.8329,101.957209 24.8329,92.7572093 C24.8329,83.5572093 32.2978,76.0725581 41.4735222,76.0725581 Z" id="Shape" fill="#FFFFFF" fill-rule="nonzero"></path>
                                        <path d="M116.894433,119.542326 L57.1455444,119.542326 L55.6852222,123.592558 C54.0950111,123.309767 52.4695444,123.134884 50.7995444,123.134884 L32.1456444,123.134884 C16.7538111,123.134884 4.23437778,135.689302 4.23437778,151.12 L9.93093333,151.12 C9.93093333,151.12 9.93093333,151.12 9.93093333,151.12 C9.93093333,138.83907 19.8952667,128.846512 32.1456444,128.846512 L50.8014,128.846512 C51.7922667,128.846512 52.7590111,128.933953 53.7164778,129.060465 L48.4467,143.685581 L26.2728111,143.685581 L26.2728111,146.541395 L26.2728111,149.397209 L46.0975667,149.397209 L52.4454222,149.397209 L61.1461222,125.252093 L107.911689,125.252093 L94.5090111,153.776744 L76.4952778,153.776744 L0,153.776744 L0,159.488372 L166.664144,159.488372 L166.664144,153.776744 L100.804911,153.776744 L116.894433,119.542326 Z" id="Shape" fill="#FFFFFF" fill-rule="nonzero"></path>
                                        <rect id="Rectangle-3-Copy" fill="#FFFFFF" x="76.7816092" y="46.2650602" width="76.7816092" height="7.71084337" rx="3.85542169"></rect>
                                        <path d="M150.7509,0.507906977 L78.2005333,0.507906977 C69.2400556,0.507906977 61.9514333,7.81767442 61.9514333,16.8 L61.9514333,65.4381395 C61.9514333,74.4223256 69.2400556,81.7302326 78.2005333,81.7302326 L84.9733111,81.7302326 L100.994178,99.5795349 L103.102089,97.0716279 C103.1726,96.987907 110.0363,88.8260465 116.6328,81.7302326 L150.7509,81.7302326 C159.711378,81.7302326 167,74.4204651 167,65.4381395 L167,16.8 C167,7.81767442 159.711378,0.507906977 150.7509,0.507906977 Z M161.303444,65.44 C161.303444,71.2725581 156.569922,76.0204651 150.752756,76.0204651 L114.166767,76.0204651 L113.324344,76.9190698 C108.607522,81.9423256 103.612367,87.6948837 100.864289,90.9004651 L87.5098556,76.0204651 L78.2005333,76.0204651 C72.3833667,76.0204651 67.6498444,71.2744186 67.6498444,65.44 L67.6498444,16.8 C67.6498444,10.9674419 72.3833667,6.21953488 78.2005333,6.21953488 L150.7509,6.21953488 C156.568067,6.21953488 161.301589,10.9655814 161.301589,16.8 L161.301589,65.44 L161.303444,65.44 Z" id="Shape" fill="#FFFFFF" fill-rule="nonzero"></path>
                                    </g>
                                </g>
                            </g>
                        </g>
                    </g>
                </g>
            </g>
        </g>
    </g>
</svg>