<?xml version="1.0" encoding="UTF-8"?>
<svg width="62px" height="60px" viewBox="0 0 62 60" version="1.1" xmlns="http://www.w3.org/2000/svg" xmlns:xlink="http://www.w3.org/1999/xlink">
    <!-- Generator: sketchtool 51.3 (57544) - http://www.bohemiancoding.com/sketch -->
    <title>9C2F9DCE-FE51-4145-9B78-1E5A2FC351C3</title>
    <desc>Created with sketchtool.</desc>
    <defs>
        <linearGradient x1="193.662322%" y1="-126.538138%" x2="244.586543%" y2="199.090433%" id="linearGradient-1">
            <stop stop-color="#48B4FD" offset="0%"></stop>
            <stop stop-color="#6877FF" offset="100%"></stop>
        </linearGradient>
        <path d="M15.3656667,59.5976661 L1.35883333,59.5976661 C0.645833333,59.5976661 0.0671666667,59.0219915 0.0671666667,58.3126782 L0.0671666667,15.4274923 C0.0671666667,14.7181789 0.645833333,14.1425044 1.35883333,14.1425044 L15.0014167,14.1425044 C15.7144167,14.1425044 16.2930833,14.7181789 16.2930833,15.4274923 C16.2930833,16.1368056 15.7144167,16.7124801 15.0014167,16.7124801 L2.6505,16.7124801 L2.6505,57.0276903 L15.3656667,57.0276903 C16.0786667,57.0276903 16.6573333,57.6033649 16.6573333,58.3126782 C16.6573333,59.0219915 16.08125,59.5976661 15.3656667,59.5976661 Z" id="path-2"></path>
        <path d="M60.6411667,59.5976661 L45.5493333,59.5976661 C44.8363333,59.5976661 44.2576667,59.0219915 44.2576667,58.3126782 C44.2576667,57.6033649 44.8363333,57.0276903 45.5493333,57.0276903 L59.3495,57.0276903 L59.3495,16.7124801 L46.9753333,16.7124801 C46.2623333,16.7124801 45.6836667,16.1368056 45.6836667,15.4274923 C45.6836667,14.7181789 46.2623333,14.1425044 46.9753333,14.1425044 L60.6411667,14.1425044 C61.3541667,14.1425044 61.9328333,14.7181789 61.9328333,15.4274923 L61.9328333,58.3126782 C61.9328333,59.0219915 61.3541667,59.5976661 60.6411667,59.5976661 Z" id="path-3"></path>
        <path d="M46.4535,59.5976661 L15.5465,59.5976661 C14.8335,59.5976661 14.2548333,59.0219915 14.2548333,58.3126782 L14.2548333,5.62817458 C14.2548333,4.91886126 14.8335,4.34318669 15.5465,4.34318669 L46.4535,4.34318669 C47.1665,4.34318669 47.7451667,4.91886126 47.7451667,5.62817458 L47.7451667,58.3126782 C47.7451667,59.0219915 47.1665,59.5976661 46.4535,59.5976661 Z M16.8381667,57.0276903 L45.1618333,57.0276903 L45.1618333,6.91316247 L16.8381667,6.91316247 L16.8381667,57.0276903 Z" id="path-4"></path>
        <path d="M28.93075,21.9089712 L19.2768333,21.9089712 C18.5638333,21.9089712 17.9851667,21.3332966 17.9851667,20.6239833 L17.9851667,11.1639024 C17.9851667,10.4545891 18.5638333,9.87891453 19.2768333,9.87891453 L28.93075,9.87891453 C29.64375,9.87891453 30.2224167,10.4545891 30.2224167,11.1639024 L30.2224167,20.6239833 C30.2224167,21.3332966 29.64375,21.9089712 28.93075,21.9089712 Z M20.5685,19.3389954 L27.6390833,19.3389954 L27.6390833,12.4488903 L20.5685,12.4488903 L20.5685,19.3389954 Z" id="path-5"></path>
        <path d="M42.7231667,21.9089712 L33.06925,21.9089712 C32.35625,21.9089712 31.7775833,21.3332966 31.7775833,20.6239833 L31.7775833,11.1639024 C31.7775833,10.4545891 32.35625,9.87891453 33.06925,9.87891453 L42.7231667,9.87891453 C43.4361667,9.87891453 44.0148333,10.4545891 44.0148333,11.1639024 L44.0148333,20.6239833 C44.0148333,21.3332966 43.43875,21.9089712 42.7231667,21.9089712 Z M34.3609167,19.3389954 L41.4315,19.3389954 L41.4315,12.4488903 L34.3609167,12.4488903 L34.3609167,19.3389954 Z" id="path-6"></path>
        <path d="M28.93075,35.7765605 L19.2768333,35.7765605 C18.5638333,35.7765605 17.9851667,35.200886 17.9851667,34.4915726 L17.9851667,25.0314918 C17.9851667,24.3221785 18.5638333,23.7465039 19.2768333,23.7465039 L28.93075,23.7465039 C29.64375,23.7465039 30.2224167,24.3221785 30.2224167,25.0314918 L30.2224167,34.4915726 C30.2224167,35.2034559 29.64375,35.7765605 28.93075,35.7765605 Z M20.5685,33.2065847 L27.6390833,33.2065847 L27.6390833,26.3164797 L20.5685,26.3164797 L20.5685,33.2065847 Z" id="path-7"></path>
        <path d="M42.7231667,35.7765605 L33.06925,35.7765605 C32.35625,35.7765605 31.7775833,35.200886 31.7775833,34.4915726 L31.7775833,25.0314918 C31.7775833,24.3221785 32.35625,23.7465039 33.06925,23.7465039 L42.7231667,23.7465039 C43.4361667,23.7465039 44.0148333,24.3221785 44.0148333,25.0314918 L44.0148333,34.4915726 C44.0148333,35.2034559 43.43875,35.7765605 42.7231667,35.7765605 Z M34.3609167,33.2065847 L41.4315,33.2065847 L41.4315,26.3164797 L34.3609167,26.3164797 L34.3609167,33.2065847 Z" id="path-8"></path>
        <path d="M42.0515,6.91316247 L19.9485,6.91316247 C19.2355,6.91316247 18.6568333,6.3374879 18.6568333,5.62817458 L18.6568333,1.62929226 C18.6568333,0.919978938 19.2355,0.344304362 19.9485,0.344304362 L42.0515,0.344304362 C42.7645,0.344304362 43.3431667,0.919978938 43.3431667,1.62929226 L43.3431667,5.62817458 C43.3431667,6.3374879 42.7645,6.91316247 42.0515,6.91316247 Z M21.2401667,4.34318669 L40.7598333,4.34318669 L40.7598333,2.91428015 L21.2401667,2.91428015 L21.2401667,4.34318669 Z" id="path-9"></path>
    </defs>
    <g id="Page-1" stroke="none" stroke-width="1" fill="none" fill-rule="evenodd">
        <g id="all" transform="translate(-1067.000000, -995.000000)" fill-rule="nonzero">
            <g id="Block_2" transform="translate(0.000000, 877.000000)">
                <g id="block_2_tile_3" transform="translate(925.000000, 96.000000)">
                    <g id="Group-15">
                        <g id="ic_block_2_company" transform="translate(142.000000, 22.000000)">
                            <g id="noun_Office_1228337">
                                <g id="Group">
                                    <g id="Shape">
                                        <g>
                                            <g>
                                                <use fill="url(#linearGradient-1)" xlink:href="#path-2"></use>
                                                <use fill="#FFFFFF" xlink:href="#path-2"></use>
                                            </g>
                                            <g>
                                                <use fill="url(#linearGradient-1)" xlink:href="#path-3"></use>
                                                <use fill="#FFFFFF" xlink:href="#path-3"></use>
                                            </g>
                                            <g>
                                                <use fill="url(#linearGradient-1)" xlink:href="#path-4"></use>
                                                <use fill="#FFFFFF" xlink:href="#path-4"></use>
                                            </g>
                                            <g>
                                                <use fill="url(#linearGradient-1)" xlink:href="#path-5"></use>
                                                <use fill="#FFFFFF" xlink:href="#path-5"></use>
                                            </g>
                                            <g>
                                                <use fill="url(#linearGradient-1)" xlink:href="#path-6"></use>
                                                <use fill="#FFFFFF" xlink:href="#path-6"></use>
                                            </g>
                                            <g>
                                                <use fill="url(#linearGradient-1)" xlink:href="#path-7"></use>
                                                <use fill="#FFFFFF" xlink:href="#path-7"></use>
                                            </g>
                                            <g>
                                                <use fill="url(#linearGradient-1)" xlink:href="#path-8"></use>
                                                <use fill="#FFFFFF" xlink:href="#path-8"></use>
                                            </g>
                                            <g>
                                                <use fill="url(#linearGradient-1)" xlink:href="#path-9"></use>
                                                <use fill="#FFFFFF" xlink:href="#path-9"></use>
                                            </g>
                                        </g>
                                    </g>
                                    <g transform="translate(17.246479, 37.680913)" fill="#FFFFFF" id="Shape">
                                        <g>
                                            <path d="M25.4766878,21.9167535 C24.7636878,21.9167535 24.1850211,21.3410789 24.1850211,20.6317656 L24.1850211,1.77842324 C24.1850211,1.06910993 24.7636878,0.493435351 25.4766878,0.493435351 C26.1896878,0.493435351 26.7683545,1.06910993 26.7683545,1.77842324 L26.7683545,20.6317656 C26.7683545,21.3410789 26.1922711,21.9167535 25.4766878,21.9167535 Z"></path>
                                            <g>
                                                <path d="M2.03035446,21.9167535 C1.31735446,21.9167535 0.738687793,21.3410789 0.738687793,20.6317656 L0.738687793,1.77842324 C0.738687793,1.06910993 1.31735446,0.493435351 2.03035446,0.493435351 C2.74335446,0.493435351 3.32202113,1.06910993 3.32202113,1.77842324 L3.32202113,20.6317656 C3.32202113,21.3410789 2.74335446,21.9167535 2.03035446,21.9167535 Z"></path>
                                                <path d="M25.4766878,3.06341114 L2.03035446,3.06341114 C1.31735446,3.06341114 0.738687793,2.48773656 0.738687793,1.77842324 C0.738687793,1.06910993 1.31735446,0.493435351 2.03035446,0.493435351 L25.4792711,0.493435351 C26.1922711,0.493435351 26.7709378,1.06910993 26.7709378,1.77842324 C26.7709378,2.48773656 26.1922711,3.06341114 25.4766878,3.06341114 Z"></path>
                                            </g>
                                        </g>
                                    </g>
                                </g>
                            </g>
                        </g>
                    </g>
                </g>
            </g>
        </g>
    </g>
</svg>