<?xml version="1.0" encoding="UTF-8"?>
<svg width="133px" height="100px" viewBox="0 0 133 100" version="1.1" xmlns="http://www.w3.org/2000/svg" xmlns:xlink="http://www.w3.org/1999/xlink">
    <!-- Generator: sketchtool 51.3 (57544) - http://www.bohemiancoding.com/sketch -->
    <title>04BE61F5-5A8D-471A-8621-B7D95C269AD2</title>
    <desc>Created with sketchtool.</desc>
    <defs></defs>
    <g id="Page-1" stroke="none" stroke-width="1" fill="none" fill-rule="evenodd" opacity="0.05">
        <g id="all" transform="translate(-743.000000, -973.000000)" fill="#FFFFFF" fill-rule="nonzero">
            <g id="Block_2" transform="translate(0.000000, 877.000000)">
                <g id="block_2_tile_2" transform="translate(545.000000, 84.000000)">
                    <g id="Group-14">
                        <g id="ic_block_2_hr-copy" transform="translate(198.000000, 0.000000)">
                            <g id="Group">
                                <path d="M49,52 C63.3604651,52 75,40.3604651 75,26 C75,11.6395349 63.3604651,0 49,0 C34.6395349,0 23,11.6395349 23,26 C23,40.3604651 34.6395349,52 49,52 Z M49,6.04651163 C60.0348837,6.04651163 68.9534884,14.9651163 68.9534884,26 C68.9534884,37.0348837 60.0348837,45.9534884 49,45.9534884 C37.9651163,45.9534884 29.0465116,37.0348837 29.0465116,26 C29.0465116,14.9651163 38.1162791,6.04651163 49,6.04651163 Z" id="Shape"></path>
                                <path d="M101,54 C111,54 119,46.0726496 119,36.5 C119,26.9273504 110.846154,19 101,19 C91.1538462,19 83,26.9273504 83,36.5 C83,46.0726496 91,54 101,54 Z M101,24.982906 C107.461538,24.982906 112.846154,30.2179487 112.846154,36.5 C112.846154,42.7820513 107.461538,48.017094 101,48.017094 C94.5384615,48.017094 89.1538462,42.7820513 89.1538462,36.5 C89.1538462,30.2179487 94.3846154,24.982906 101,24.982906 Z" id="Shape"></path>
                                <path d="M143.090526,128.838509 L123.688421,109.710632 C127.477895,105.156376 129.751579,99.3876511 129.751579,93.0116921 C129.751579,89.368287 128.993684,86.0284989 127.781053,82.8405194 L128.842105,82.8405194 C130.357895,82.8405194 131.722105,81.6260511 131.873684,80.1079656 C133.541053,64.0162595 120.96,56.5776407 114.138947,55.0595552 C113.381053,54.9077467 112.623158,55.0595552 112.016842,55.3631723 C107.621053,57.6403005 102.315789,58.0957262 100.345263,58.0957262 C97.92,57.9439176 93.2210526,57.488492 89.1284211,55.3631723 C88.5221053,55.0595552 87.7642105,54.9077467 87.0063158,55.0595552 C86.8547368,55.0595552 82.3073684,56.2740236 77.76,59.6138117 C73.3642105,57.3366834 69.8778947,56.2740236 69.7263158,56.1222151 C68.9684211,55.818598 68.0589474,55.9704065 67.3010526,56.2740236 C67.1494737,56.2740236 58.6610526,60.82828 48.2021053,61.4355142 C38.3494737,62.194557 30.7705263,56.7294493 30.6189474,56.7294493 C30.0126316,56.2740236 29.2547368,56.1222151 28.4968421,56.1222151 C21.0694737,56.8812578 14.7031579,60.0692373 9.39789474,65.6861536 C3.48631579,71.910304 0.151578947,80.2597741 0.151578947,89.2164784 L0,103.031056 C0,103.790099 0.303157895,104.70095 0.909473684,105.156376 C1.51578947,105.76361 2.27368421,106.067227 3.03157895,106.067227 L81.2463158,106.067227 C85.7936842,113.809463 94.1305263,118.970954 103.68,118.970954 C109.591579,118.970954 114.896842,116.997443 119.292632,113.809463 L138.846316,133.089149 C139.452632,133.696383 140.210526,134 140.968421,134 C141.726316,134 142.484211,133.696383 143.090526,133.089149 C144.303158,131.87468 144.303158,130.052978 143.090526,128.838509 Z M87.4610526,61.1318971 C92.16,63.2572168 97.3136842,63.864451 100.042105,64.0162595 C100.042105,64.0162595 100.042105,64.0162595 100.193684,64.0162595 C100.193684,64.0162595 100.193684,64.0162595 100.193684,64.0162595 C100.193684,64.0162595 100.193684,64.0162595 100.345263,64.0162595 C100.345263,64.0162595 100.345263,64.0162595 100.345263,64.0162595 C100.345263,64.0162595 100.345263,64.0162595 100.345263,64.0162595 C100.345263,64.0162595 100.345263,64.0162595 100.345263,64.0162595 C102.618947,64.0162595 108.378947,63.5608339 113.684211,61.1318971 C116.715789,62.194557 125.658947,65.9897707 125.962105,76.7681775 L124.294737,76.7681775 C119.444211,70.6958356 112.168421,66.7488134 103.831579,66.7488134 C99.7389474,66.7488134 95.9494737,67.6596647 92.4631579,69.3295587 C90.1894737,67.0524305 87.3094737,64.7753023 83.9747368,62.6499826 C85.1873684,61.8909399 86.5515789,61.4355142 87.4610526,61.1318971 Z M6.06315789,99.9948853 L6.21473684,89.2164784 C6.36631579,81.7778596 8.94315789,74.946475 13.7936842,69.7849843 C17.8863158,65.534345 22.5852632,62.9535997 28.0421053,62.194557 C30.7705263,63.864451 38.6526316,68.1150903 48.5052632,67.3560476 C57.9031579,66.7488134 65.7852632,63.4090253 68.8168421,62.0427484 C70.3326316,62.6499826 73.3642105,63.864451 76.6989474,65.6861536 C80.9431579,67.9632818 84.2778947,70.24041 87.0063158,72.6693468 C81.2463158,77.5272203 77.6084211,84.662222 77.6084211,92.8598836 C77.6084211,95.2888204 77.9115789,97.7177571 78.6694737,99.9948853 L6.06315789,99.9948853 Z M83.6715789,92.8598836 C83.6715789,81.7778596 92.6147368,72.8211553 103.68,72.8211553 C114.745263,72.8211553 123.688421,81.7778596 123.688421,92.8598836 C123.688421,103.941908 114.745263,112.898612 103.68,112.898612 C92.6147368,112.898612 83.6715789,103.941908 83.6715789,92.8598836 Z" id="Shape"></path>
                            </g>
                        </g>
                    </g>
                </g>
            </g>
        </g>
    </g>
</svg>