<?xml version="1.0" encoding="UTF-8"?>
<svg width="110px" height="100px" viewBox="0 0 110 100" version="1.1" xmlns="http://www.w3.org/2000/svg" xmlns:xlink="http://www.w3.org/1999/xlink">
    <!-- Generator: sketchtool 51.3 (57544) - http://www.bohemiancoding.com/sketch -->
    <title>84D3C5F1-680D-4E47-9943-D069051AE6AD</title>
    <desc>Created with sketchtool.</desc>
    <defs>
        <linearGradient x1="193.662322%" y1="-126.538138%" x2="244.586543%" y2="199.090433%" id="linearGradient-1">
            <stop stop-color="#48B4FD" offset="0%"></stop>
            <stop stop-color="#6877FF" offset="100%"></stop>
        </linearGradient>
        <path d="M27.2616667,106.282505 L2.41083333,106.282505 C1.14583333,106.282505 0.119166667,105.255885 0.119166667,103.990943 L0.119166667,27.5123612 C0.119166667,26.2474191 1.14583333,25.2207994 2.41083333,25.2207994 L26.6154167,25.2207994 C27.8804167,25.2207994 28.9070833,26.2474191 28.9070833,27.5123612 C28.9070833,28.7773033 27.8804167,29.8039229 26.6154167,29.8039229 L4.7025,29.8039229 L4.7025,101.699381 L27.2616667,101.699381 C28.5266667,101.699381 29.5533333,102.726001 29.5533333,103.990943 C29.5533333,105.255885 28.53125,106.282505 27.2616667,106.282505 Z" id="path-2"></path>
        <path d="M107.589167,106.282505 L80.8133333,106.282505 C79.5483333,106.282505 78.5216667,105.255885 78.5216667,103.990943 C78.5216667,102.726001 79.5483333,101.699381 80.8133333,101.699381 L105.2975,101.699381 L105.2975,29.8039229 L83.3433333,29.8039229 C82.0783333,29.8039229 81.0516667,28.7773033 81.0516667,27.5123612 C81.0516667,26.2474191 82.0783333,25.2207994 83.3433333,25.2207994 L107.589167,25.2207994 C108.854167,25.2207994 109.880833,26.2474191 109.880833,27.5123612 L109.880833,103.990943 C109.880833,105.255885 108.854167,106.282505 107.589167,106.282505 Z" id="path-3"></path>
        <path d="M82.4175,106.282505 L27.5825,106.282505 C26.3175,106.282505 25.2908333,105.255885 25.2908333,103.990943 L25.2908333,10.0369113 C25.2908333,8.77196925 26.3175,7.74534959 27.5825,7.74534959 L82.4175,7.74534959 C83.6825,7.74534959 84.7091667,8.77196925 84.7091667,10.0369113 L84.7091667,103.990943 C84.7091667,105.255885 83.6825,106.282505 82.4175,106.282505 Z M29.8741667,101.699381 L80.1258333,101.699381 L80.1258333,12.3284731 L29.8741667,12.3284731 L29.8741667,101.699381 Z" id="path-4"></path>
        <path d="M51.32875,39.0709986 L34.2008333,39.0709986 C32.9358333,39.0709986 31.9091667,38.044379 31.9091667,36.7794369 L31.9091667,19.9089593 C31.9091667,18.6440172 32.9358333,17.6173976 34.2008333,17.6173976 L51.32875,17.6173976 C52.59375,17.6173976 53.6204167,18.6440172 53.6204167,19.9089593 L53.6204167,36.7794369 C53.6204167,38.044379 52.59375,39.0709986 51.32875,39.0709986 Z M36.4925,34.4878751 L49.0370833,34.4878751 L49.0370833,22.2005211 L36.4925,22.2005211 L36.4925,34.4878751 Z" id="path-5"></path>
        <path d="M75.7991667,39.0709986 L58.67125,39.0709986 C57.40625,39.0709986 56.3795833,38.044379 56.3795833,36.7794369 L56.3795833,19.9089593 C56.3795833,18.6440172 57.40625,17.6173976 58.67125,17.6173976 L75.7991667,17.6173976 C77.0641667,17.6173976 78.0908333,18.6440172 78.0908333,19.9089593 L78.0908333,36.7794369 C78.0908333,38.044379 77.06875,39.0709986 75.7991667,39.0709986 Z M60.9629167,34.4878751 L73.5075,34.4878751 L73.5075,22.2005211 L60.9629167,22.2005211 L60.9629167,34.4878751 Z" id="path-6"></path>
        <path d="M51.32875,63.801533 L34.2008333,63.801533 C32.9358333,63.801533 31.9091667,62.7749133 31.9091667,61.5099712 L31.9091667,44.6394937 C31.9091667,43.3745516 32.9358333,42.3479319 34.2008333,42.3479319 L51.32875,42.3479319 C52.59375,42.3479319 53.6204167,43.3745516 53.6204167,44.6394937 L53.6204167,61.5099712 C53.6204167,62.7794964 52.59375,63.801533 51.32875,63.801533 Z M36.4925,59.2184095 L49.0370833,59.2184095 L49.0370833,46.9310554 L36.4925,46.9310554 L36.4925,59.2184095 Z" id="path-7"></path>
        <path d="M75.7991667,63.801533 L58.67125,63.801533 C57.40625,63.801533 56.3795833,62.7749133 56.3795833,61.5099712 L56.3795833,44.6394937 C56.3795833,43.3745516 57.40625,42.3479319 58.67125,42.3479319 L75.7991667,42.3479319 C77.0641667,42.3479319 78.0908333,43.3745516 78.0908333,44.6394937 L78.0908333,61.5099712 C78.0908333,62.7794964 77.06875,63.801533 75.7991667,63.801533 Z M60.9629167,59.2184095 L73.5075,59.2184095 L73.5075,46.9310554 L60.9629167,46.9310554 L60.9629167,59.2184095 Z" id="path-8"></path>
        <path d="M74.6075,12.3284731 L35.3925,12.3284731 C34.1275,12.3284731 33.1008333,11.3018534 33.1008333,10.0369113 L33.1008333,2.90557119 C33.1008333,1.64062911 34.1275,0.614009445 35.3925,0.614009445 L74.6075,0.614009445 C75.8725,0.614009445 76.8991667,1.64062911 76.8991667,2.90557119 L76.8991667,10.0369113 C76.8991667,11.3018534 75.8725,12.3284731 74.6075,12.3284731 Z M37.6841667,7.74534959 L72.3158333,7.74534959 L72.3158333,5.19713293 L37.6841667,5.19713293 L37.6841667,7.74534959 Z" id="path-9"></path>
    </defs>
    <g id="Page-1" stroke="none" stroke-width="1" fill="none" fill-rule="evenodd" opacity="0.05">
        <g id="all" transform="translate(-1137.000000, -973.000000)" fill-rule="nonzero">
            <g id="Block_2" transform="translate(0.000000, 877.000000)">
                <g id="block_2_tile_3" transform="translate(925.000000, 96.000000)">
                    <g id="Group-15">
                        <g id="ic_block_2_company-copy" transform="translate(212.000000, -3.000000)">
                            <g id="noun_Office_1228337">
                                <g id="Group">
                                    <g id="Shape">
                                        <g>
                                            <g>
                                                <use fill="url(#linearGradient-1)" xlink:href="#path-2"></use>
                                                <use fill="#FFFFFF" xlink:href="#path-2"></use>
                                            </g>
                                            <g>
                                                <use fill="url(#linearGradient-1)" xlink:href="#path-3"></use>
                                                <use fill="#FFFFFF" xlink:href="#path-3"></use>
                                            </g>
                                            <g>
                                                <use fill="url(#linearGradient-1)" xlink:href="#path-4"></use>
                                                <use fill="#FFFFFF" xlink:href="#path-4"></use>
                                            </g>
                                            <g>
                                                <use fill="url(#linearGradient-1)" xlink:href="#path-5"></use>
                                                <use fill="#FFFFFF" xlink:href="#path-5"></use>
                                            </g>
                                            <g>
                                                <use fill="url(#linearGradient-1)" xlink:href="#path-6"></use>
                                                <use fill="#FFFFFF" xlink:href="#path-6"></use>
                                            </g>
                                            <g>
                                                <use fill="url(#linearGradient-1)" xlink:href="#path-7"></use>
                                                <use fill="#FFFFFF" xlink:href="#path-7"></use>
                                            </g>
                                            <g>
                                                <use fill="url(#linearGradient-1)" xlink:href="#path-8"></use>
                                                <use fill="#FFFFFF" xlink:href="#path-8"></use>
                                            </g>
                                            <g>
                                                <use fill="url(#linearGradient-1)" xlink:href="#path-9"></use>
                                                <use fill="#FFFFFF" xlink:href="#path-9"></use>
                                            </g>
                                        </g>
                                    </g>
                                    <g transform="translate(31.666553, 67.197627)" fill="#FFFFFF" id="Shape">
                                        <g>
                                            <path d="M44.132614,39.0848771 C42.867614,39.0848771 41.8409473,38.0582574 41.8409473,36.7933154 L41.8409473,3.17152145 C41.8409473,1.90657937 42.867614,0.879959709 44.132614,0.879959709 C45.397614,0.879959709 46.4242806,1.90657937 46.4242806,3.17152145 L46.4242806,36.7933154 C46.4242806,38.0582574 45.4021973,39.0848771 44.132614,39.0848771 Z"></path>
                                            <g>
                                                <path d="M2.53428062,39.0848771 C1.26928062,39.0848771 0.242613952,38.0582574 0.242613952,36.7933154 L0.242613952,3.17152145 C0.242613952,1.90657937 1.26928062,0.879959709 2.53428062,0.879959709 C3.79928062,0.879959709 4.82594729,1.90657937 4.82594729,3.17152145 L4.82594729,36.7933154 C4.82594729,38.0582574 3.79928062,39.0848771 2.53428062,39.0848771 Z"></path>
                                                <path d="M44.132614,5.4630832 L2.53428062,5.4630832 C1.26928062,5.4630832 0.242613952,4.43646354 0.242613952,3.17152145 C0.242613952,1.90657937 1.26928062,0.879959709 2.53428062,0.879959709 L44.1371973,0.879959709 C45.4021973,0.879959709 46.428864,1.90657937 46.428864,3.17152145 C46.428864,4.43646354 45.4021973,5.4630832 44.132614,5.4630832 Z"></path>
                                            </g>
                                        </g>
                                    </g>
                                </g>
                            </g>
                        </g>
                    </g>
                </g>
            </g>
        </g>
    </g>
</svg>