<?xml version="1.0" encoding="UTF-8"?>
<svg width="71px" height="66px" viewBox="0 0 71 66" version="1.1" xmlns="http://www.w3.org/2000/svg" xmlns:xlink="http://www.w3.org/1999/xlink">
    <!-- Generator: sketchtool 51.3 (57544) - http://www.bohemiancoding.com/sketch -->
    <title>DABECA4A-942B-49D4-8E4F-DC9212EE7231</title>
    <desc>Created with sketchtool.</desc>
    <defs></defs>
    <g id="Page-1" stroke="none" stroke-width="1" fill="none" fill-rule="evenodd">
        <g id="all" transform="translate(-685.000000, -995.000000)" fill="#FFFFFF" fill-rule="nonzero">
            <g id="Block_2" transform="translate(0.000000, 877.000000)">
                <g id="block_2_tile_2" transform="translate(545.000000, 84.000000)">
                    <g id="ic_block_2_hr" transform="translate(140.000000, 34.000000)">
                        <g id="Group">
                            <path d="M24.3322917,25.74 C31.3583333,25.74 37.053125,20.0933333 37.053125,13.1266667 C37.053125,6.16 31.3583333,0.513333333 24.3322917,0.513333333 C17.30625,0.513333333 11.6114583,6.16 11.6114583,13.1266667 C11.6114583,20.0933333 17.30625,25.74 24.3322917,25.74 Z M24.3322917,3.44666667 C29.73125,3.44666667 34.0947917,7.77333333 34.0947917,13.1266667 C34.0947917,18.48 29.73125,22.8066667 24.3322917,22.8066667 C18.9333333,22.8066667 14.5697917,18.48 14.5697917,13.1266667 C14.5697917,7.77333333 19.0072917,3.44666667 24.3322917,3.44666667 Z" id="Shape"></path>
                            <path d="M49.6260417,26.84 C54.4333333,26.84 58.2791667,22.9533333 58.2791667,18.26 C58.2791667,13.5666667 54.359375,9.68 49.6260417,9.68 C44.8927083,9.68 40.9729167,13.5666667 40.9729167,18.26 C40.9729167,22.9533333 44.81875,26.84 49.6260417,26.84 Z M49.6260417,12.6133333 C52.7322917,12.6133333 55.3208333,15.18 55.3208333,18.26 C55.3208333,21.34 52.7322917,23.9066667 49.6260417,23.9066667 C46.5197917,23.9066667 43.93125,21.34 43.93125,18.26 C43.93125,15.18 46.4458333,12.6133333 49.6260417,12.6133333 Z" id="Shape"></path>
                            <path d="M70.1864583,62.9933333 L60.7197917,53.7533333 C62.56875,51.5533333 63.678125,48.7666667 63.678125,45.6866667 C63.678125,43.9266667 63.3083333,42.3133333 62.7166667,40.7733333 L63.234375,40.7733333 C63.9739583,40.7733333 64.6395833,40.1866667 64.7135417,39.4533333 C65.5270833,31.68 59.3885417,28.0866667 56.0604167,27.3533333 C55.690625,27.28 55.3208333,27.3533333 55.025,27.5 C52.8802083,28.6 50.2916667,28.82 49.3302083,28.82 C48.146875,28.7466667 45.8541667,28.5266667 43.8572917,27.5 C43.5614583,27.3533333 43.1916667,27.28 42.821875,27.3533333 C42.7479167,27.3533333 40.5291667,27.94 38.3104167,29.5533333 C36.165625,28.4533333 34.4645833,27.94 34.390625,27.8666667 C34.0208333,27.72 33.5770833,27.7933333 33.2072917,27.94 C33.1333333,27.94 28.9916667,30.14 23.8885417,30.4333333 C19.08125,30.8 15.3833333,28.16 15.309375,28.16 C15.0135417,27.94 14.64375,27.8666667 14.2739583,27.8666667 C10.65,28.2333333 7.54375,29.7733333 4.95520833,32.4866667 C2.07083333,35.4933333 0.44375,39.5266667 0.44375,43.8533333 L0.369791667,50.5266667 C0.369791667,50.8933333 0.517708333,51.3333333 0.813541667,51.5533333 C1.109375,51.8466667 1.47916667,51.9933333 1.84895833,51.9933333 L40.0114583,51.9933333 C42.2302083,55.7333333 46.2979167,58.2266667 50.9572917,58.2266667 C53.8416667,58.2266667 56.4302083,57.2733333 58.575,55.7333333 L68.115625,65.0466667 C68.4114583,65.34 68.78125,65.4866667 69.1510417,65.4866667 C69.5208333,65.4866667 69.890625,65.34 70.1864583,65.0466667 C70.778125,64.46 70.778125,63.58 70.1864583,62.9933333 Z M43.04375,30.2866667 C45.3364583,31.3133333 47.8510417,31.6066667 49.1822917,31.68 C49.1822917,31.68 49.1822917,31.68 49.25625,31.68 C49.25625,31.68 49.25625,31.68 49.25625,31.68 C49.25625,31.68 49.25625,31.68 49.3302083,31.68 C49.3302083,31.68 49.3302083,31.68 49.3302083,31.68 C49.3302083,31.68 49.3302083,31.68 49.3302083,31.68 C49.3302083,31.68 49.3302083,31.68 49.3302083,31.68 C50.4395833,31.68 53.25,31.46 55.8385417,30.2866667 C57.3177083,30.8 61.68125,32.6333333 61.8291667,37.84 L61.015625,37.84 C58.6489583,34.9066667 55.0989583,33 51.03125,33 C49.034375,33 47.1854167,33.44 45.484375,34.2466667 C44.375,33.1466667 42.9697917,32.0466667 41.3427083,31.02 C41.934375,30.6533333 42.6,30.4333333 43.04375,30.2866667 Z M3.328125,49.06 L3.40208333,43.8533333 C3.47604167,40.26 4.73333333,36.96 7.1,34.4666667 C9.096875,32.4133333 11.3895833,31.1666667 14.0520833,30.8 C15.3833333,31.6066667 19.2291667,33.66 24.0364583,33.2933333 C28.621875,33 32.4677083,31.3866667 33.946875,30.7266667 C34.6864583,31.02 36.165625,31.6066667 37.7927083,32.4866667 C39.8635417,33.5866667 41.490625,34.6866667 42.821875,35.86 C40.0114583,38.2066667 38.2364583,41.6533333 38.2364583,45.6133333 C38.2364583,46.7866667 38.384375,47.96 38.7541667,49.06 L3.328125,49.06 Z M41.1947917,45.6133333 C41.1947917,40.26 45.5583333,35.9333333 50.9572917,35.9333333 C56.35625,35.9333333 60.7197917,40.26 60.7197917,45.6133333 C60.7197917,50.9666667 56.35625,55.2933333 50.9572917,55.2933333 C45.5583333,55.2933333 41.1947917,50.9666667 41.1947917,45.6133333 Z" id="Shape"></path>
                        </g>
                    </g>
                </g>
            </g>
        </g>
    </g>
</svg>