<?xml version="1.0" encoding="UTF-8"?>
<svg width="28px" height="30px" viewBox="0 0 28 30" version="1.1" xmlns="http://www.w3.org/2000/svg" xmlns:xlink="http://www.w3.org/1999/xlink">
    <!-- Generator: sketchtool 51.3 (57544) - http://www.bohemiancoding.com/sketch -->
    <title>E1F663A1-7A33-4870-AF2F-E0EA1FC0F64D</title>
    <desc>Created with sketchtool.</desc>
    <defs></defs>
    <g id="Page-1" stroke="none" stroke-width="1" fill="none" fill-rule="evenodd">
        <g id="features_1" transform="translate(-167.000000, -3670.000000)">
            <g id="Group-6-Copy-2" transform="translate(167.000000, 3669.000000)">
                <g id="ic_maybe_know" transform="translate(0.000000, 1.000000)">
                    <path d="M6.34016451,8.03583149 C4.13509352,8.03347184 2.34778597,6.23730239 2.34426287,4.02011721 C2.3434008,2.39485097 3.31642421,0.929136926 4.80952188,0.30657375 C6.30261955,-0.315989426 8.02167752,0.0272322447 9.16493931,1.1761626 C10.3082011,2.32509296 10.6504643,4.05341296 10.0320997,5.55504637 C9.41373512,7.05667978 7.95654974,8.03583126 6.34016451,8.03583149 Z M1.70491803,15 C1.25274566,15 0.819093084,14.8675965 0.49935893,14.6319166 C0.179624777,14.3962368 0,14.0765864 0,13.7432848 L0,13.4558112 C0.0902741357,10.8574708 2.97381548,8.78571429 6.5,8.78571429 C10.0261845,8.78571429 12.9097259,10.8574708 13,13.4558112 L13,13.7432848 C13,14.4373494 12.2366822,15 11.295082,15 L1.70491803,15 Z" id="Combined-Shape" fill="#FFFFFF" fill-rule="nonzero"></path>
                    <path d="M21.3401645,23.0358315 C19.1350935,23.0334718 17.347786,21.2373024 17.3442629,19.0201172 C17.3434008,17.394851 18.3164242,15.9291369 19.8095219,15.3065737 C21.3026196,14.6840106 23.0216775,15.0272322 24.1649393,16.1761626 C25.3082011,17.325093 25.6504643,19.053413 25.0320997,20.5550464 C24.4137351,22.0566798 22.9565497,23.0358313 21.3401645,23.0358315 Z M16.704918,30 C16.2527457,30 15.8190931,29.8675965 15.4993589,29.6319166 C15.1796248,29.3962368 15,29.0765864 15,28.7432848 L15,28.4558112 C15.0902741,25.8574708 17.9738155,23.7857143 21.5,23.7857143 C25.0261845,23.7857143 27.9097259,25.8574708 28,28.4558112 L28,28.7432848 C28,29.4373494 27.2366822,30 26.295082,30 L16.704918,30 Z" id="Combined-Shape-Copy" fill="#FFFFFF" fill-rule="nonzero"></path>
                    <polyline id="Path-2" stroke="#FFFFFF" stroke-width="1.5" points="6 17 6 24 14 24"></polyline>
                </g>
            </g>
        </g>
    </g>
</svg>