<?xml version="1.0" encoding="UTF-8"?>
<svg width="26px" height="26px" viewBox="0 0 26 26" version="1.1" xmlns="http://www.w3.org/2000/svg" xmlns:xlink="http://www.w3.org/1999/xlink">
    <!-- Generator: sketchtool 51.3 (57544) - http://www.bohemiancoding.com/sketch -->
    <title>FB728BE3-993E-4A8C-9B46-FB15C67D5F50</title>
    <desc>Created with sketchtool.</desc>
    <defs></defs>
    <g id="Page-1" stroke="none" stroke-width="1" fill="none" fill-rule="evenodd">
        <g id="features_1" transform="translate(-171.000000, -3029.000000)" fill="#FFFFFF" fill-rule="nonzero">
            <g id="Group-6" transform="translate(171.000000, 3028.000000)">
                <g id="Group-5-Copy">
                    <g id="ic_search" transform="translate(0.000000, 1.000000)">
                        <path d="M25.4554026,22.8294495 L18.6268102,16.0008571 C19.7615043,14.3554579 20.4282066,12.3627792 20.4282066,10.2141033 C20.4282066,4.57220407 15.8560026,0 10.2141033,0 C4.57220407,0 0,4.57220407 0,10.2141033 C0,15.8560026 4.57220407,20.4282066 10.2141033,20.4282066 C12.3627792,20.4282066 14.3554579,19.7615043 16.0008571,18.6268102 L22.8294495,25.4554026 C23.5555794,26.1815325 24.7311298,26.1815325 25.4554026,25.4554026 C26.1815325,24.7311298 26.1815325,23.5537223 25.4554026,22.8294495 Z M3,10 C3,6.13425 6.13425,3 10,3 C13.86575,3 17,6.13425 17,10 C17,13.86575 13.86575,17 10,17 C6.13425,17 3,13.86575 3,10 Z" id="Shape"></path>
                    </g>
                </g>
            </g>
        </g>
    </g>
</svg>