<svg xmlns="http://www.w3.org/2000/svg" width="607" height="375" viewBox="0 0 607 375">
    <g fill="none" fill-rule="evenodd">
        <path fill="#FFFFFE" d="M70.55 154.842c-2.762 6.607-8.607 11.808-16.135 13.408a22.18 22.18 0 0 1-7.01.373 17.27 17.27 0 0 1-1.135-.142c-9.004-1.394-16.644-8.199-18.647-17.623-2.13-10.026 2.771-19.93 11.356-24.56.322-.184.659-.349.997-.515a22.58 22.58 0 0 1 5.049-1.712c8.976-1.908 17.871 1.825 22.952 8.812.228.302.431.607.639.925a22.323 22.323 0 0 1 3.189 7.659c.736 3.464.63 6.91-.175 10.132a20.828 20.828 0 0 1-1.08 3.243zm.883-22.948c-.196-.32-.413-.635-.64-.935-5.842-8.097-16.11-12.434-26.479-10.23a25.313 25.313 0 0 0-5.85 2c-.351.155-.685.332-1.008.516-9.94 5.314-15.634 16.749-13.174 28.323 2.282 10.738 10.932 18.518 21.153 20.222.379.082.75.132 1.131.166 2.786.351 5.674.25 8.56-.364 8.752-1.86 15.537-7.947 18.679-15.671a26.117 26.117 0 0 0 1.08-3.244 25.95 25.95 0 0 0 .26-11.92 25.542 25.542 0 0 0-3.712-8.863zM209.881 97.378a19.865 19.865 0 0 1-2.247 2.572 22.296 22.296 0 0 1-11.14 6.024c-10.48 2.228-20.838-3.243-25.173-12.575-.158-.351-.312-.702-.459-1.056-.488-1.2-.87-2.458-1.15-3.772-2.587-12.172 5.219-24.19 17.39-26.778 9.334-1.984 18.565 2.129 23.535 9.63a22.35 22.35 0 0 1 3.256 7.758c1.407 6.616-.25 13.171-4.012 18.197zm3.983-27.258c-.197-.332-.416-.646-.635-.96-5.776-8.4-16.256-12.957-26.837-10.708-14.022 2.98-23.001 16.807-20.02 30.83a25.182 25.182 0 0 0 1.153 3.898c.136.368.281.721.424 1.063 4.828 11.104 16.97 17.684 29.255 15.072a25.744 25.744 0 0 0 12.987-7.079c.808-.8 1.558-1.658 2.247-2.574 4.454-5.824 6.438-13.474 4.797-21.192a25.728 25.728 0 0 0-3.37-8.35zM124.265 316.336c-6.985 1.485-13.904-.444-19.035-4.65-.297-.241-.595-.492-.873-.758a22.438 22.438 0 0 1-6.878-11.986c-2.59-12.187 5.207-24.195 17.395-26.786 8.789-1.868 17.494 1.673 22.621 8.372.701.887 1.324 1.85 1.876 2.861a22.284 22.284 0 0 1 2.288 6.162c2.59 12.187-5.207 24.194-17.394 26.785zm17.82-35.085a25.855 25.855 0 0 0-1.9-2.855c-5.927-7.67-15.93-11.727-26.02-9.582-14.027 2.982-23.009 16.812-20.028 30.838a25.844 25.844 0 0 0 8.603 14.403c5.938 5.035 14.058 7.361 22.235 5.623 14.026-2.981 23.007-16.812 20.026-30.837a25.67 25.67 0 0 0-2.916-7.59zM235.379 236.1c-6.614 1.406-13.167-.42-18.025-4.403a13.411 13.411 0 0 1-.826-.718 21.247 21.247 0 0 1-6.513-11.35c-2.453-11.54 4.93-22.91 16.471-25.363 8.322-1.77 16.565 1.583 21.42 7.927.664.84 1.253 1.751 1.777 2.71a21.1 21.1 0 0 1 2.166 5.834c2.453 11.54-4.93 22.91-16.47 25.363zm16.873-33.222a24.482 24.482 0 0 0-1.8-2.704c-5.611-7.263-15.082-11.104-24.638-9.073-13.282 2.823-21.787 15.92-18.964 29.201a24.472 24.472 0 0 0 8.146 13.638c5.623 4.768 13.312 6.97 21.055 5.324 13.28-2.822 21.786-15.919 18.963-29.2a24.307 24.307 0 0 0-2.762-7.186zM402.507 187.69c-5.052 1.075-10.057-.32-13.768-3.363-.215-.174-.43-.355-.631-.548a16.23 16.23 0 0 1-4.975-8.67c-1.874-8.814 3.766-17.5 12.582-19.373 6.356-1.351 12.652 1.21 16.361 6.055.507.642.958 1.338 1.357 2.07a16.118 16.118 0 0 1 1.655 4.457c1.874 8.815-3.766 17.5-12.581 19.373zm12.89-25.376a18.7 18.7 0 0 0-1.375-2.065c-4.287-5.548-11.522-8.482-18.821-6.93-10.145 2.156-16.642 12.16-14.485 22.305a18.693 18.693 0 0 0 6.222 10.417c4.295 3.642 10.168 5.324 16.083 4.067 10.144-2.156 16.64-12.16 14.484-22.304a18.567 18.567 0 0 0-2.109-5.49zM538.604 226.826c-.976 9.488-7.952 17.7-17.776 19.788-12.188 2.59-24.194-5.207-26.785-17.394a22.499 22.499 0 0 1 1.566-14.107c2.875-6.247 8.537-11.106 15.75-12.662l.079-.017c.355-.075.704-.14 1.053-.19 7.153-1.182 14.152 1.173 19.113 5.834.289.266.556.535.824.816a22.424 22.424 0 0 1 5.795 10.935 22.33 22.33 0 0 1 .464 5.851c-.011.387-.048.767-.083 1.146zm-4.27-20.853a16.945 16.945 0 0 0-.843-.787c-5.754-5.158-13.733-7.699-21.847-6.266-.305.042-.605.106-.917.172l-.212.045c-8.24 1.822-14.704 7.399-17.995 14.536a25.35 25.35 0 0 0-1.231 3.196 25.848 25.848 0 0 0-.588 13.061c2.981 14.025 16.813 23.007 30.838 20.026 11.54-2.453 19.67-12.249 20.511-23.455.037-.38.062-.757.073-1.144a26.1 26.1 0 0 0-.558-6.238 25.819 25.819 0 0 0-7.231-13.146zM273.222 146.398c-.525 5.1-4.275 9.515-9.556 10.637-6.551 1.393-13.005-2.799-14.398-9.35a12.094 12.094 0 0 1 .842-7.583c1.545-3.358 4.589-5.97 8.466-6.807l.042-.009c.191-.04.379-.075.566-.102a12.114 12.114 0 0 1 10.718 3.575 12.054 12.054 0 0 1 3.115 5.878c.225 1.06.305 2.113.25 3.145-.007.208-.026.413-.045.616zM271 135.113a9.178 9.178 0 0 0-.456-.426c-3.116-2.794-7.438-4.17-11.833-3.394a6.82 6.82 0 0 0-.496.093l-.116.025c-4.463.986-7.963 4.007-9.746 7.873a14 14 0 0 0-.985 8.805c1.615 7.596 9.106 12.46 16.702 10.846 6.25-1.328 10.654-6.634 11.11-12.703.02-.206.033-.41.039-.62.034-1.11-.061-2.244-.302-3.379a13.984 13.984 0 0 0-3.917-7.12zM556.93 83.187c-.251.287-.516.576-.798.834a22.308 22.308 0 0 1-11.304 6.186c-7.84 1.666-15.609-.978-20.842-6.327a21.63 21.63 0 0 1-2.216-2.647 22.329 22.329 0 0 1-3.724-8.43c-1.638-7.706.89-15.355 6.054-20.585.27-.266.54-.522.823-.78a22.301 22.301 0 0 1 10.514-5.412c12.183-2.59 24.203 5.215 26.79 17.387 1.556 7.318-.636 14.582-5.296 19.774zm-22.203-40.503a25.841 25.841 0 0 0-12.226 6.336c-.283.258-.553.525-.823.79-5.95 6.015-8.86 14.829-6.973 23.704a25.724 25.724 0 0 0 4.155 9.525 24.89 24.89 0 0 0 2.15 2.674c6.022 6.53 15.228 9.812 24.528 7.835a25.817 25.817 0 0 0 12.556-6.65c.282-.259.548-.536.815-.814 5.741-6.017 8.513-14.66 6.66-23.381-2.98-14.022-16.82-23-30.842-20.019zM409.045 52.615c-4.555.969-9.092.49-13.119-1.146a22.77 22.77 0 0 1-3.067-1.513c-5.249-3.11-9.23-8.32-10.594-14.736-2.59-12.187 5.216-24.197 17.39-26.784 12.183-2.59 24.201 5.206 26.791 17.393l.017.078c.08.378.147.748.202 1.122 1.85 11.761-5.836 23.082-17.62 25.586zm-10.1-47.521c-14.022 2.98-23.002 16.81-20.021 30.837 1.59 7.485 6.276 13.534 12.423 17.106a28.946 28.946 0 0 0 3.056 1.504 25.926 25.926 0 0 0 15.353 1.416c13.643-2.9 22.528-16.08 20.234-29.716a17.848 17.848 0 0 0-.202-1.122c-2.982-14.026-16.822-23.006-30.844-20.025zM490.872 17.2c-.24.293-.517.56-.797.816a8.118 8.118 0 0 1-3.649 1.817c-4.114.875-8.191-1.555-9.415-5.516a5.588 5.588 0 0 1-.202-.734c-.026-.121-.051-.242-.056-.368-.717-4.244 2.055-8.337 6.303-9.24 4.369-.928 8.685 1.867 9.614 6.237a8.118 8.118 0 0 1-1.798 6.988zM482.35.656c-6.107 1.298-10.055 7.25-8.92 13.346l.06.287c.06.276.13.55.207.813 1.661 5.742 7.505 9.312 13.435 8.051a11.49 11.49 0 0 0 5.347-2.744c.28-.256.546-.533.799-.806a11.482 11.482 0 0 0 2.71-10.096C494.671 3.31 488.554-.663 482.35.656zM588.44 133.335a8.002 8.002 0 0 1-5.628-.862 5.855 5.855 0 0 1-.953-.618 8.027 8.027 0 0 1-3.035-4.764c-.66-3.108.569-6.19 2.902-8.04.286-.234.6-.45.93-.636l.01-.003a7.928 7.928 0 0 1 2.403-.938c4.369-.929 8.687 1.877 9.616 6.246.928 4.367-1.876 8.687-6.245 9.615zm-4.077-19.179c-1.317.28-2.538.784-3.623 1.453-.315.195-.631.4-.93.626-3.433 2.614-5.261 7.059-4.304 11.561a11.52 11.52 0 0 0 4.486 6.919c.312.21.634.42.953.618a11.534 11.534 0 0 0 8.2 1.32c6.204-1.318 10.177-7.434 8.858-13.639-1.319-6.206-7.436-10.177-13.64-8.858zM501.146 160.607a5.847 5.847 0 0 1-.863.243l-.235.037c-4.298.787-8.472-1.99-9.385-6.281-.928-4.369 1.867-8.686 6.249-9.618 4.371-.929 8.68 1.879 9.61 6.247.864 4.07-1.506 8.1-5.376 9.372zm-4.94-18.937c-6.208 1.32-10.181 7.436-8.862 13.642 1.311 6.17 7.368 10.13 13.545 8.877l.1-.021c.342-.073.672-.156.997-.259 5.623-1.727 9.101-7.517 7.855-13.38-1.32-6.205-7.438-10.176-13.634-8.859zM359.146 136.607a5.847 5.847 0 0 1-.863.243l-.235.037c-4.298.787-8.472-1.99-9.385-6.281-.928-4.369 1.867-8.686 6.249-9.618 4.371-.929 8.68 1.879 9.61 6.247.864 4.07-1.506 8.1-5.376 9.372zm-4.94-18.937c-6.208 1.32-10.181 7.436-8.862 13.642 1.311 6.17 7.368 10.13 13.545 8.877l.1-.021c.342-.073.672-.156.997-.259 5.623-1.727 9.101-7.517 7.855-13.38-1.32-6.205-7.438-10.176-13.634-8.859zM596.23 228.565a8.112 8.112 0 0 1-9.622-6.249c-.026-.121-.051-.242-.054-.357a5.157 5.157 0 0 1-.11-1.122 8.093 8.093 0 0 1 6.415-8.13c4.37-.929 8.678 1.869 9.607 6.239.931 4.383-1.866 8.69-6.237 9.62zm-4.077-19.177c-5.577 1.185-9.358 6.257-9.101 11.765.01.368.043.743.1 1.123.04.247.082.491.136.746 1.32 6.21 7.438 10.183 13.647 8.863 6.196-1.317 10.17-7.436 8.85-13.645-1.316-6.196-7.436-10.17-13.632-8.852zM53.23 370.922c-4.37.929-8.68-1.879-9.608-6.246-.928-4.37 1.867-8.687 6.237-9.616a8.122 8.122 0 0 1 7.157 1.947c.284.252.539.523.787.815a8.051 8.051 0 0 1 1.677 3.483c.929 4.368-1.868 8.685-6.25 9.617zm7.025-15.435a7.726 7.726 0 0 0-.785-.815 11.441 11.441 0 0 0-10.316-2.93c-6.196 1.317-10.17 7.433-8.851 13.64 1.318 6.204 7.437 10.175 13.633 8.858 6.209-1.32 10.183-7.436 8.864-13.64a11.421 11.421 0 0 0-2.545-5.113zM30.85 244.378c-4.37.93-8.688-1.876-9.616-6.244-.93-4.369 1.875-8.688 6.245-9.617a8.02 8.02 0 0 1 3.1-.045c.371.06.738.155 1.098.275a8.105 8.105 0 0 1 5.418 6.016c.928 4.367-1.877 8.687-6.245 9.615zm1.664-18.931a11.299 11.299 0 0 0-1.099-.275c-1.5-.306-3.07-.307-4.641.027-6.206 1.319-10.178 7.434-8.858 13.64 1.318 6.205 7.434 10.176 13.64 8.857 6.203-1.318 10.176-7.434 8.857-13.639-.9-4.236-4.03-7.42-7.9-8.61zM16.819 85.083a4.8 4.8 0 0 1-.982.544 7.463 7.463 0 0 1-1.8.625c-4.37.93-8.677-1.868-9.606-6.238-.932-4.383 1.865-8.69 6.235-9.62a8.113 8.113 0 0 1 9.623 6.249 8.078 8.078 0 0 1-3.47 8.44zM9.96 67.075C3.765 68.392-.21 74.51 1.11 80.719c1.317 6.198 7.436 10.17 13.632 8.853.93-.197 1.803-.498 2.61-.889.335-.164.668-.34.983-.544 4.057-2.46 6.312-7.31 5.272-12.202-1.32-6.208-7.438-10.182-13.647-8.862zM110.238 116.152c-3.122.664-6.191-.558-8.056-2.904a7.73 7.73 0 0 1-.626-.93l-.002-.012a7.93 7.93 0 0 1-.938-2.403c-.929-4.37 1.869-8.677 6.251-9.609 4.084-.868 8.119 1.525 9.384 5.408.092.27.162.544.223.83l.045.27c.773 4.288-2 8.44-6.281 9.35zm9.307-11.277c-1.708-5.64-7.507-9.15-13.384-7.9-6.21 1.32-10.182 7.438-8.865 13.634.28 1.318.78 2.529 1.45 3.613l.003.012c.184.32.4.63.626.93 2.615 3.434 7.063 5.266 11.568 4.308 6.153-1.308 10.11-7.343 8.881-13.5l-.03-.145a9.543 9.543 0 0 0-.25-.952zM256.861 39.45a8.018 8.018 0 0 1-6.947-1.785 5.803 5.803 0 0 1-.816-.797 8.018 8.018 0 0 1-1.855-3.667c-.929-4.37 1.878-8.68 6.247-9.608 4.368-.928 8.686 1.867 9.614 6.237.932 4.383-1.875 8.692-6.243 9.62zm-4.076-19.177c-6.206 1.32-10.177 7.437-8.86 13.633a11.42 11.42 0 0 0 2.61 5.207c.256.28.524.558.798.812a11.5 11.5 0 0 0 10.234 2.846c6.204-1.32 10.175-7.437 8.856-13.647-1.317-6.195-7.433-10.17-13.638-8.85z"/>
        <path fill="#FFFFFE" d="M395.261 53.924l-1.476 2.907-32.099 63.528-2.944-1.416 32.112-63.52 1.464-2.916a21.848 21.848 0 0 0 2.943 1.417M524.063 83.87l-2.96 1.836-114.29 71.066-1.801-2.917 113.944-70.842 2.895-1.81a21.834 21.834 0 0 0 2.212 2.667M495.843 215.64a21.962 21.962 0 0 0-1.183 3.225l-3.118-1.47-76.593-36.03 1.425-3.111 76.389 35.933 3.08 1.453M209.811 226.314l-67.039 53.512-2.685 2.137a20.557 20.557 0 0 0-1.868-2.874l2.662-2.13 66.813-53.327 2.117 2.682M214.957 197.614l-1.075 3.234-136.656-44.925-3.24-1.068c.45-1.042.802-2.112 1.077-3.22l3.24 1.067 136.654 44.912M252.836 135.336l-2.308 2.516-40.462-35.605-2.568-2.25c.83-.786 1.59-1.638 2.276-2.554l2.567 2.249 40.495 35.644M37.395 126.37c-.322.163-.643.324-.951.506l-1.483-3.051L17.92 88.533l-1.488-3.073c.336-.14.654-.323.942-.536l1.488 3.072 18.533 38.375M101.292 113.11c.188.33.407.641.632.929l-2.854 1.927-25.204 17-2.847 1.914a15.702 15.702 0 0 0-.642-.918l2.845-1.923 25.215-17.003-.002-.012 2.857-1.914M171.338 93.41l-3.371.838-47.643 11.863-3.326.828-.043-.255a6.434 6.434 0 0 0-.214-.789l3.315-.825 47.5-11.823 3.337-.83c.142.333.293.664.445.994M45.311 170.526l-.825 3.341-12.612 51.182-.83 3.332a6.951 6.951 0 0 0-1.098-.28l.828-3.332 12.588-51.07.822-3.318c.37.06.75.11 1.127.145M103.856 311.603l-38.783 36.923-2.455 2.34-5.866 5.592-.788-.828 5.866-5.582 2.457-2.34 36.237-34.505 2.464-2.355c.277.265.573.515.868.755M347.263 133.042l-60.496 11.59-3.831.737-9.157 1.761.12-1.5 9.148-1.749 3.834-.735 56.53-10.836 3.85-.746c-.02.498-.013.994.002 1.478M248.741 38.222l-2.612 2.26-32.411 28.061-2.623 2.273c-.2-.338-.409-.66-.615-.974l2.604-2.248 34.835-30.164c.248.281.516.558.822.792M477.322 13.295c.047.218.102.423.18.625l-3.335.778-43.991 10.269-3.323.775a12.909 12.909 0 0 0-.166-.952l3.322-.775 43.925-10.255 3.344-.78c0 .108.022.211.044.315M525.304 51.233c-.28.26-.55.516-.817.784l-33.86-34.062c.281-.26.56-.529.798-.826l2.42 2.444 29.04 29.216 2.42 2.444M512.33 201.819c-.371.055-.742.123-1.12.204l-.083.018-10.455-40.637.251-.04c.318-.068.625-.146.923-.255l10.483 40.71M586.084 221.745c0 .388.038.78.122 1.175l-3.381.293-41.262 3.64-3.402.298c.03-.393.062-.788.068-1.19l3.392-.296 41.092-3.628 3.37-.292M581.479 132.744l-47.704 73.237-1.907 2.93a17.568 17.568 0 0 0-.826-.819l49.476-75.974c.306.24.62.453.96.626M581.66 119.168c-.338.188-.66.406-.952.642l-1.945-2.813-21.033-30.284-1.977-2.854c.288-.258.557-.547.814-.834l25.093 36.143"/>
        <path stroke="#FFF" stroke-linecap="square" d="M388.08 156.079l-27.487-18.694"/>
        <path stroke="#FFF" stroke-linecap="square" stroke-width="3" d="M253.5 207.5l98-70"/>
    </g>
</svg>
