<?xml version="1.0" encoding="UTF-8"?>
<svg width="67px" height="64px" viewBox="0 0 67 64" version="1.1" xmlns="http://www.w3.org/2000/svg" xmlns:xlink="http://www.w3.org/1999/xlink">
    <!-- Generator: sketchtool 51.3 (57544) - http://www.bohemiancoding.com/sketch -->
    <title>6EB6160C-8A0E-44EE-B492-64F0596DA5DE</title>
    <desc>Created with sketchtool.</desc>
    <defs></defs>
    <g id="Page-1" stroke="none" stroke-width="1" fill="none" fill-rule="evenodd">
        <g id="all" transform="translate(-306.000000, -992.000000)">
            <g id="Block_2" transform="translate(0.000000, 877.000000)">
                <g id="block_2_tile_1" transform="translate(165.000000, 96.000000)">
                    <g id="ic_block_2_job_seeker">
                        <g id="Group">
                            <g id="img_seeker" transform="translate(141.000000, 19.000000)">
                                <path d="M16.6390778,43.776 C20.3203556,43.776 23.3152556,40.7821395 23.3152556,37.1021395 C23.3152556,33.4221395 20.3203556,30.4282791 16.6390778,30.4282791 C12.9578,30.4282791 9.9629,33.4221395 9.9629,37.1021395 C9.9629,40.7821395 12.9578,43.776 16.6390778,43.776 Z" id="Shape"></path>
                                <path d="M60.4809,2.48855814 L31.3738667,2.48855814 C29.0400333,2.48855814 27.1409556,4.38697674 27.1409556,6.72074419 L27.1409556,26.176 C27.1409556,28.5090233 29.0400333,30.408186 31.3738667,30.408186 L35.1087444,30.408186 L40.4665111,36.360186 C41.5682889,35.0772093 43.5730778,32.776186 45.4654556,30.7676279 L45.8034333,30.408186 L60.4809,30.408186 C62.8147333,30.408186 64.7138111,28.5097674 64.7138111,26.176 L64.7138111,6.72 C64.7145556,4.38697674 62.8154778,2.48855814 60.4809,2.48855814 Z" id="Shape"></path>
                                <path d="M7.67745556,37.1021395 C7.67745556,42.0420465 11.6974556,46.0606512 16.6390778,46.0606512 C21.5807,46.0606512 25.6007,42.0420465 25.6007,37.1021395 C25.6007,32.1622326 21.5807,28.1436279 16.6390778,28.1436279 C11.6974556,28.1436279 7.67745556,32.1629767 7.67745556,37.1021395 Z M16.6390778,30.4290233 C20.3203556,30.4290233 23.3152556,33.4228837 23.3152556,37.1028837 C23.3152556,40.7828837 20.3203556,43.7767442 16.6390778,43.7767442 C12.9578,43.7767442 9.9629,40.7828837 9.9629,37.1028837 C9.9629,33.4228837 12.9578,30.4290233 16.6390778,30.4290233 Z" id="Shape" fill="#FFFFFF" fill-rule="nonzero"></path>
                                <path d="M46.8977667,47.8169302 L22.9266556,47.8169302 L22.3407778,49.4370233 C21.7027889,49.323907 21.0506556,49.2539535 20.3806556,49.2539535 L12.8967556,49.2539535 C6.72158889,49.2539535 1.69882222,54.2757209 1.69882222,60.448 L3.98426667,60.448 C3.98426667,60.448 3.98426667,60.448 3.98426667,60.448 C3.98426667,55.5356279 7.98193333,51.5386047 12.8967556,51.5386047 L20.3814,51.5386047 C20.7789333,51.5386047 21.1667889,51.5735814 21.5509222,51.624186 L19.4367,57.4742326 L10.5405889,57.4742326 L10.5405889,58.6165581 L10.5405889,59.7588837 L18.4942333,59.7588837 L21.0409778,59.7588837 L24.5316778,50.1008372 L43.2939111,50.1008372 L37.9167889,61.5106977 L30.6897222,61.5106977 L0,61.5106977 L0,63.7953488 L66.8652556,63.7953488 L66.8652556,61.5106977 L40.4426889,61.5106977 L46.8977667,47.8169302 Z" id="Shape" fill="#FFFFFF" fill-rule="nonzero"></path>
                                <rect id="Rectangle-3" fill="#FFFFFF" x="30.8045977" y="10.0240964" width="30.8045977" height="3.08433735" rx="1.54216867"></rect>
                                <rect id="Rectangle-3-Copy" fill="#FFFFFF" x="30.8045977" y="18.5060241" width="30.8045977" height="3.08433735" rx="1.54216867"></rect>
                                <path d="M60.4809,0.203162791 L31.3738667,0.203162791 C27.7789444,0.203162791 24.8547667,3.12706977 24.8547667,6.72 L24.8547667,26.1752558 C24.8547667,29.7689302 27.7789444,32.692093 31.3738667,32.692093 L34.0910889,32.692093 L40.5186222,39.831814 L41.3643111,38.8286512 C41.3926,38.7951628 44.1463,35.5304186 46.7928,32.692093 L60.4809,32.692093 C64.0758222,32.692093 67,29.768186 67,26.1752558 L67,6.72 C67,3.12706977 64.0758222,0.203162791 60.4809,0.203162791 Z M64.7145556,26.176 C64.7145556,28.5090233 62.8154778,30.408186 60.4816444,30.408186 L45.8034333,30.408186 L45.4654556,30.7676279 C43.5730778,32.7769302 41.5690333,35.0779535 40.4665111,36.360186 L35.1087444,30.408186 L31.3738667,30.408186 C29.0400333,30.408186 27.1409556,28.5097674 27.1409556,26.176 L27.1409556,6.72 C27.1409556,4.38697674 29.0400333,2.48781395 31.3738667,2.48781395 L60.4809,2.48781395 C62.8147333,2.48781395 64.7138111,4.38623256 64.7138111,6.72 L64.7138111,26.176 L64.7145556,26.176 Z" id="Shape" fill="#FFFFFF" fill-rule="nonzero"></path>
                            </g>
                        </g>
                    </g>
                </g>
            </g>
        </g>
    </g>
</svg>