<?xml version="1.0" encoding="UTF-8"?>
<svg width="607px" height="375px" viewBox="0 0 607 375" version="1.1" xmlns="http://www.w3.org/2000/svg" xmlns:xlink="http://www.w3.org/1999/xlink">
    <!-- Generator: sketchtool 51.3 (57544) - http://www.bohemiancoding.com/sketch -->
    <title>28488D74-EABF-47A0-861E-6972E7FB25F4</title>
    <desc>Created with sketchtool.</desc>
    <defs></defs>
    <g id="Page-1" stroke="none" stroke-width="1" fill="none" fill-rule="evenodd">
        <g id="Landing_Linkedator" transform="translate(-705.000000, -300.000000)">
            <g id="Block_1" transform="translate(-427.000000, -1067.000000)">
                <g id="img_network" transform="translate(1109.000000, 1315.000000)">
                    <g id="Group" transform="translate(325.200218, 215.162134) rotate(-12.000000) translate(-325.200218, -215.162134) translate(26.700218, 59.662134)">
                        <g id="Group-9">
                            <path d="M73.642028,99.1994542 C69.5659185,105.08745 62.7674687,108.959633 55.0718194,108.959633 C52.6568952,108.959633 50.3239487,108.584942 48.1367402,107.866311 C47.7723952,107.753562 47.4091888,107.627146 47.0562296,107.49162 C38.5396655,104.25607 32.4812915,96.0117366 32.4812915,86.3768344 C32.4812915,76.1269384 39.3355316,67.458943 48.6946435,64.7153876 C49.0487413,64.6014998 49.4119477,64.5103896 49.7774313,64.4181406 C51.472774,64.0092836 53.2489559,63.7928969 55.0718194,63.7928969 C64.2487588,63.7928969 72.1732623,69.2936744 75.69033,77.1849554 C75.8508695,77.5277575 75.9863603,77.8682818 76.1229897,78.2224727 C77.1135526,80.7507804 77.6498229,83.5068635 77.6498229,86.3768344 C77.6498229,89.9187429 76.8289081,93.2670422 75.3726667,96.2509008 C74.8705538,97.2861403 74.3012648,98.2667137 73.642028,99.1994542 Z M79.276851,76.9355413 C79.1516074,76.5824893 79.0047309,76.2294374 78.8441913,75.8877742 C74.8136249,66.753978 65.6719814,60.3762649 55.0718194,60.3762649 C52.9529255,60.3762649 50.903485,60.6256791 48.9337449,61.1165352 C48.5580141,61.1951177 48.1948077,61.2987556 47.8407099,61.4115044 C37.0128323,64.5434171 29.0655572,74.5438989 29.0655572,86.3768344 C29.0655572,97.3544729 35.9084115,106.762739 45.552168,110.5552 C45.9051272,110.713504 46.2580864,110.839919 46.6235699,110.952668 C49.2753183,111.875159 52.1217635,112.376265 55.0718194,112.376265 C64.0199046,112.376265 71.9216365,107.833283 76.6011925,100.930548 C77.2387962,99.9852796 77.8206096,99.006984 78.3318312,97.9819944 C80.0749943,94.4845021 81.0655572,90.5439865 81.0655572,86.3768344 C81.0655572,83.0501737 80.4382007,79.8613172 79.276851,76.9355413 Z" id="Fill-135" fill="#FFFFFE"></path>
                            <path d="M221.875848,71.959492 C221.021896,72.722356 220.109875,73.4055178 219.143201,74.0078388 C215.636304,76.2747975 211.467878,77.5841909 206.993168,77.5841909 C196.280053,77.5841909 187.285089,70.0796584 184.985111,60.0497044 C184.90427,59.6739654 184.825706,59.2982264 184.756251,58.9213488 C184.528531,57.6461134 184.415809,56.3367199 184.415809,54.9931684 C184.415809,42.549376 194.549376,32.4158091 206.993168,32.4158091 C216.5358,32.4158091 224.709831,38.3581782 228.01178,46.728049 C228.148413,47.081016 228.285045,47.4442303 228.410291,47.8199693 C229.173155,50.0744033 229.584191,52.4893803 229.584191,54.9931684 C229.584191,61.7576089 226.599912,67.8252244 221.875848,71.959492 Z M231.438975,46.1245894 C231.314868,45.7590979 231.165711,45.4061309 231.017692,45.053164 C227.113422,35.636917 217.809897,29 206.993168,29 C192.658156,29 181,40.6581563 181,54.9931684 C181,56.3720166 181.102474,57.7269542 181.31767,59.0465951 C181.3746,59.4348588 181.442917,59.8105978 181.511233,60.1749507 C183.925071,72.0391942 194.434377,81 206.993168,81 C212.220495,81 217.092577,79.4514999 221.168776,76.7757828 C222.125203,76.1609372 223.037224,75.4777753 223.901423,74.7251587 C229.469192,69.9544121 233,62.8836873 233,54.9931684 C233,51.8847821 232.453471,48.8902562 231.438975,46.1245894 Z" id="Fill-136" fill="#FFFFFE"></path>
                            <path d="M92.6065985,268.331752 C85.4658376,268.331752 79.0983744,265.00623 74.9539998,259.825477 C74.7136967,259.52823 74.4745325,259.220733 74.2581458,258.902986 C71.5931728,255.201635 70.022661,250.657514 70.022661,245.748953 C70.022661,233.289635 80.1461416,223.165015 92.6065985,223.165015 C101.591202,223.165015 109.369734,228.438018 112.992503,236.057107 C113.493609,237.070708 113.902466,238.141252 114.23274,239.245963 C114.859123,241.306192 115.189397,243.482587 115.189397,245.748953 C115.189397,258.208271 105.065916,268.331752 92.6065985,268.331752 Z M117.331625,237.718729 C116.978573,236.626546 116.55605,235.556001 116.066333,234.531011 C111.863875,225.795822 102.923688,219.748384 92.6065985,219.748384 C78.266994,219.748384 66.606029,231.409348 66.606029,245.748953 C66.606029,251.316924 68.3599001,256.477177 71.3426198,260.702412 C71.5703953,261.020159 71.7993096,261.327656 72.0259462,261.624903 C76.7875923,267.78509 84.2461,271.748384 92.6065985,271.748384 C106.945064,271.748384 118.606029,260.087419 118.606029,245.748953 C118.606029,242.947315 118.163006,240.248175 117.331625,237.718729 Z" id="Fill-137" fill="#FFFFFE"></path>
                            <path d="M217.973943,212.950826 C211.212306,212.950826 205.18291,209.801866 201.258572,204.896175 C201.031028,204.614709 200.804561,204.323538 200.599663,204.022662 C198.076182,200.517826 196.589053,196.214966 196.589053,191.567015 C196.589053,179.769198 206.175048,170.182125 217.973943,170.182125 C226.481527,170.182125 233.847074,175.175168 237.2775,182.389737 C237.752,183.349523 238.13915,184.363229 238.451889,185.409288 C239.045015,187.360133 239.357754,189.420977 239.357754,191.567015 C239.357754,203.364831 229.771759,212.950826 217.973943,212.950826 Z M241.386245,183.963139 C241.051938,182.928943 240.651848,181.915236 240.188131,180.944666 C236.208794,172.673254 227.743268,166.946892 217.973943,166.946892 C204.39567,166.946892 193.35382,177.988742 193.35382,191.567015 C193.35382,196.839366 195.014573,201.725646 197.838931,205.726551 C198.054613,206.027428 198.271374,206.318599 198.485978,206.600064 C202.994814,212.433189 210.057328,216.186059 217.973943,216.186059 C231.551137,216.186059 242.592987,205.144209 242.592987,191.567015 C242.592987,188.914124 242.173485,186.35829 241.386245,183.963139 Z" id="Fill-137-Copy" fill="#FFFFFE"></path>
                            <path d="M391.515027,200.347691 C386.350117,200.347691 381.744534,197.942342 378.746909,194.195106 C378.573098,193.980107 378.40011,193.757695 378.243598,193.527869 C376.316024,190.850683 375.180074,187.563922 375.180074,184.013562 C375.180074,175.001742 382.502383,167.678609 391.515027,167.678609 C398.013587,167.678609 403.639796,171.492569 406.260143,177.003453 C406.622593,177.736591 406.918319,178.510915 407.157206,179.309952 C407.610268,180.800115 407.849156,182.3743 407.849156,184.013562 C407.849156,193.025382 400.526846,200.347691 391.515027,200.347691 Z M409.398629,178.205304 C409.143266,177.415328 408.837655,176.641004 408.483443,175.899629 C405.443807,169.58147 398.977373,165.20736 391.515027,165.20736 C381.143196,165.20736 372.708825,173.641732 372.708825,184.013562 C372.708825,188.040873 373.977399,191.773282 376.134799,194.829393 C376.299549,195.059219 376.465123,195.281632 376.629049,195.49663 C380.073146,199.952291 385.467881,202.81894 391.515027,202.81894 C401.886033,202.81894 410.320404,194.384568 410.320404,184.013562 C410.320404,181.987138 409.999966,180.034852 409.398629,178.205304 Z" id="Fill-137-Copy-2" fill="#FFFFFE"></path>
                            <path d="M516.501533,266.923805 C513.573544,276.001796 505.043539,282.583368 495,282.583368 C482.539816,282.583368 472.416557,272.459887 472.416557,260.000569 C472.416557,256.172803 473.372054,252.575089 475.046167,249.420399 C475.582567,248.406798 476.197547,247.437614 476.880859,246.527651 C480.992116,241.014345 487.540517,237.43941 494.919141,237.416632 L495,237.416632 C495.363294,237.416632 495.717477,237.426882 496.069382,237.449659 C503.312484,237.781073 509.668419,241.539368 513.551905,247.130117 C513.779676,247.450141 513.984669,247.769027 514.188524,248.099301 C516.342094,251.548961 517.583443,255.638669 517.583443,260.000569 C517.583443,262.016382 517.320368,263.963863 516.820412,265.820233 C516.729304,266.196062 516.614279,266.560503 516.501533,266.923805 Z M516.659834,245.638187 C516.455979,245.320441 516.22707,245.000416 515.999299,244.694058 C511.44389,238.451871 504.166623,234.307497 495.93272,234.022778 C495.62523,234 495.318879,234 495,234 L494.782479,234 C486.343583,234.068333 478.862462,238.17968 474.159001,244.476533 C473.474551,245.388773 472.848182,246.34543 472.290145,247.346503 C470.194656,251.09341 469,255.409755 469,260.000569 C469,274.339035 480.661848,286 495,286 C506.797372,286 516.786246,278.108719 519.939728,267.322412 C520.054753,266.95911 520.157249,266.594669 520.248357,266.21884 C520.736925,264.225804 521,262.141659 521,260.000569 C521,254.693401 519.404468,249.762062 516.659834,245.638187 Z" id="Fill-138" fill="#FFFFFE"></path>
                            <path d="M273.640266,133.07748 C272.066324,137.957377 267.481014,141.495317 262.082103,141.495317 C255.384123,141.495317 249.942359,136.053415 249.942359,129.355878 C249.942359,127.298253 250.455987,125.364294 251.355908,123.668482 C251.64425,123.123619 251.974833,122.602631 252.342147,122.113478 C254.552156,119.149788 258.072253,117.228072 262.038638,117.215828 L262.082103,117.215828 C262.277392,117.215828 262.467784,117.221338 262.656951,117.233582 C266.550484,117.411734 269.967121,119.432015 272.054692,122.437335 C272.17713,122.609365 272.287325,122.780783 272.396907,122.958323 C273.55456,124.812696 274.221848,127.011128 274.221848,129.355878 C274.221848,130.439484 274.080432,131.486356 273.81168,132.484253 C273.762705,132.686281 273.700873,132.882187 273.640266,133.07748 Z M273.813489,121.576937 C273.703077,121.404839 273.579095,121.231507 273.45573,121.065578 C270.988432,117.684689 267.046924,115.440015 262.587283,115.285806 C262.42074,115.273469 262.254814,115.273469 262.082103,115.273469 L261.96429,115.273469 C257.39362,115.310479 253.3417,117.537264 250.794215,120.947762 C250.423503,121.441849 250.08425,121.959993 249.782006,122.502194 C248.647049,124.531591 248,126.869407 248,129.355881 C248,137.121871 254.316283,143.437676 262.082103,143.437676 C268.471788,143.437676 273.881956,139.163605 275.589943,133.321532 C275.652243,133.124761 275.707757,132.927373 275.757103,132.723816 C276.02172,131.64435 276.164207,130.515536 276.164207,129.355881 C276.164207,126.481416 275.300036,123.810507 273.813489,121.576937 Z" id="Fill-138-Copy" fill="#FFFFFE"></path>
                            <path d="M564.292052,130.233589 C563.985767,130.462448 563.666959,130.690169 563.336764,130.883731 C559.783184,133.229253 555.548719,134.584191 550.994307,134.584191 C542.978542,134.584191 535.92945,130.382746 531.922706,124.06236 C531.307861,123.094548 530.760193,122.069805 530.30589,121.012043 C529.087585,118.245238 528.415809,115.192643 528.415809,111.993168 C528.415809,104.114035 532.479483,97.1583096 538.617692,93.1162689 C538.936501,92.9113203 539.254171,92.7177578 539.584366,92.5241953 C542.932998,90.5418875 546.82702,89.4158091 550.994307,89.4158091 C563.449485,89.4158091 573.584191,99.549376 573.584191,111.993168 C573.584191,119.474929 569.929275,126.12437 564.292052,130.233589 Z M550.994307,86 C546.155244,86 541.612218,87.3321655 537.718196,89.6549157 C537.388001,89.8484782 537.068053,90.0534268 536.749245,90.2572367 C529.67852,94.9038756 525,102.919641 525,111.993168 C525,115.603679 525.738953,119.04226 527.083644,122.173418 C527.52656,123.23118 528.050317,124.255923 528.631005,125.23626 C533.163784,132.876286 541.485833,138 550.994307,138 C555.991636,138 560.683819,136.576746 564.657543,134.105978 C564.987738,133.911277 565.305408,133.694942 565.624217,133.478607 C572.491132,128.787563 577,120.90843 577,111.993168 C577,97.6581563 565.329319,86 550.994307,86 Z" id="Fill-139" fill="#FFFFFE"></path>
                            <path d="M425.994307,69.583368 C421.337421,69.583368 416.998205,68.172299 413.400219,65.7339626 C412.455178,65.0961913 411.555682,64.3912263 410.714254,63.6167897 C406.22702,59.482665 403.415809,53.559364 403.415809,47.0005694 C403.415809,34.5412515 413.548237,24.416632 425.994307,24.416632 C438.449485,24.416632 448.584191,34.5412515 448.584191,47.0005694 L448.584191,47.0802909 C448.584191,47.4663703 448.572805,47.8421998 448.548894,48.2191682 C447.912415,60.1079086 438.040727,69.583368 425.994307,69.583368 Z M425.994307,21 C411.659295,21 400,32.660965 400,47.0005694 C400,54.6526862 403.324721,61.5440329 408.595314,66.315929 C409.439019,67.0664491 410.338515,67.7725531 411.271031,68.422852 C415.462229,71.3042117 420.540399,73 425.994307,73 C439.942194,73 451.373768,61.9540288 451.964703,48.1394468 C451.988614,47.7636172 452,47.3877877 452,47.0005694 C452,32.660965 440.329319,21 425.994307,21 Z" id="Fill-140" fill="#FFFFFE"></path>
                            <path d="M513.396264,51.9542548 C513.101131,52.1918347 512.774336,52.3943433 512.446411,52.5866699 C511.281711,53.2326611 509.934956,53.606001 508.5,53.606001 C504.29351,53.606001 500.810718,50.3817019 500.437561,46.2523364 C500.403638,46.0023119 500.39233,45.7545499 500.39233,45.493212 C500.39233,45.3687654 500.39233,45.2454501 500.413815,45.1210034 C500.594739,40.8208067 504.157817,37.393999 508.5,37.393999 C512.966568,37.393999 516.60767,41.025578 516.60767,45.493212 C516.60767,48.1292179 515.340069,50.4722086 513.396264,51.9542548 Z M508.5,34 C502.256981,34 497.157178,39.0004919 497,45.2001968 L497,45.493212 C497,45.7760453 497.011308,46.0588785 497.032793,46.3315298 C497.463618,52.2936547 502.437906,57 508.5,57 C510.614553,57 512.593412,56.4218888 514.300885,55.4274471 C514.62881,55.2351205 514.945428,55.0201672 515.249607,54.805214 C518.133088,52.7122479 520,49.3182489 520,45.493212 C520,39.1588785 514.842527,34 508.5,34 Z" id="Fill-141" fill="#FFFFFE"></path>
                            <path d="M584.686059,185.8376 C582.638223,185.8376 580.783749,185.080017 579.360101,183.823786 C579.066099,183.586335 578.804889,183.316092 578.557249,183.020974 C577.324702,181.607572 576.57839,179.75432 576.57839,177.730329 C576.57839,174.553003 578.421556,171.794043 581.089058,170.469969 C581.416984,170.30036 581.768655,170.154497 582.130504,170.040295 L582.141812,170.040295 C582.944663,169.770052 583.792746,169.621928 584.686059,169.621928 C589.152628,169.621928 592.793729,173.263981 592.793729,177.730329 C592.793729,182.195547 589.152628,185.8376 584.686059,185.8376 Z M584.686059,166.229764 C583.339304,166.229764 582.040042,166.468346 580.840287,166.89802 C580.490877,167.0224 580.139206,167.158086 579.799973,167.316387 C575.898793,169.159463 573.186059,173.127163 573.186059,177.730329 C573.186059,180.681512 574.304398,183.383935 576.136256,185.430541 C576.397465,185.701914 576.668852,185.973287 576.939107,186.233353 C578.986944,188.086605 581.712116,189.229764 584.686059,189.229764 C591.028586,189.229764 596.186059,184.073675 596.186059,177.730329 C596.186059,171.385853 591.028586,166.229764 584.686059,166.229764 Z" id="Fill-142" fill="#FFFFFE"></path>
                            <path d="M493.629174,194.36411 C493.335027,194.409339 493.039749,194.421777 492.735421,194.421777 L492.497841,194.409339 C488.129764,194.286091 484.623763,190.701704 484.623763,186.314506 C484.623763,181.848157 488.255342,178.206104 492.735421,178.206104 C497.204186,178.206104 500.835765,181.848157 500.835765,186.314506 C500.835765,190.474429 497.679346,193.92426 493.629174,194.36411 Z M492.735421,174.813941 C486.387511,174.813941 481.229764,179.970029 481.229764,186.314506 C481.229764,192.6228 486.330945,197.756274 492.633601,197.813941 L492.735421,197.813941 C493.085003,197.813941 493.425534,197.801503 493.764934,197.768712 C499.624107,197.24858 504.229764,192.307328 504.229764,186.314506 C504.229764,179.970029 499.069754,174.813941 492.735421,174.813941 Z" id="Fill-143" fill="#FFFFFE"></path>
                            <path d="M359.722095,141.365108 C359.427949,141.410337 359.132671,141.422775 358.828342,141.422775 L358.590762,141.410337 C354.222685,141.287088 350.716684,137.702702 350.716684,133.315504 C350.716684,128.849155 354.348263,125.207102 358.828342,125.207102 C363.297107,125.207102 366.928686,128.849155 366.928686,133.315504 C366.928686,137.475427 363.772267,140.925257 359.722095,141.365108 Z M358.828342,121.814938 C352.480433,121.814938 347.322685,126.971027 347.322685,133.315504 C347.322685,139.623797 352.423866,144.757271 358.726522,144.814938 L358.828342,144.814938 C359.177924,144.814938 359.518455,144.8025 359.857855,144.769709 C365.717029,144.249578 370.322685,139.308326 370.322685,133.315504 C370.322685,126.971027 365.162676,121.814938 358.828342,121.814938 Z" id="Fill-143-Copy" fill="#FFFFFE"></path>
                            <path d="M572.505657,280.606001 C568.025578,280.606001 564.393999,276.974422 564.393999,272.493212 C564.393999,272.368765 564.393999,272.24545 564.415494,272.132317 C564.415494,271.747664 564.460748,271.374324 564.541072,271.012297 C565.231185,267.244958 568.534678,264.393999 572.505657,264.393999 C576.974422,264.393999 580.606001,268.025578 580.606001,272.493212 C580.606001,276.974422 576.974422,280.606001 572.505657,280.606001 Z M572.505657,261 C566.803738,261 562.051008,265.174619 561.157255,270.616331 C561.090507,270.978357 561.045253,271.351697 561.021495,271.735219 C561.010182,271.985243 561,272.233005 561,272.493212 C561,278.841121 566.157747,284 572.505657,284 C578.83999,284 584,278.841121 584,272.493212 C584,266.158879 578.83999,261 572.505657,261 Z" id="Fill-144" fill="#FFFFFE"></path>
                            <path d="M11.7749736,306.955783 C7.30733954,306.955783 3.67576059,303.31373 3.67576059,298.848512 C3.67576059,294.382163 7.30733954,290.74011 11.7749736,290.74011 C14.4913041,290.74011 16.8999121,292.086799 18.370645,294.132274 C18.5969116,294.437569 18.7892382,294.755301 18.9713828,295.093387 C19.559676,296.213932 19.8877626,297.491646 19.8877626,298.848512 C19.8877626,303.31373 16.2550523,306.955783 11.7749736,306.955783 Z M21.8551507,293.319285 C21.6741374,292.980069 21.4818108,292.663467 21.2566755,292.358172 C19.1965181,289.326709 15.7120124,287.347947 11.7749736,287.347947 C5.44064008,287.347947 0.281761577,292.504035 0.281761577,298.848512 C0.281761577,305.191858 5.44064008,310.347947 11.7749736,310.347947 C18.1228831,310.347947 23.2817616,305.191858 23.2817616,298.848512 C23.2817616,296.847135 22.7602171,294.958831 21.8551507,293.319285 Z" id="Fill-145" fill="#FFFFFE"></path>
                            <path d="M16.194004,178.524573 C11.7265245,178.524573 8.08560223,174.88252 8.08560223,170.417302 C8.08560223,165.950953 11.7265245,162.3089 16.194004,162.3089 C17.2670584,162.3089 18.2971454,162.524868 19.235644,162.909313 C19.5861676,163.045 19.9253839,163.214608 20.2521624,163.406831 C22.6730365,164.808925 24.301275,167.432198 24.301275,170.417302 C24.301275,174.88252 20.659222,178.524573 16.194004,178.524573 Z M21.7571523,160.352753 C21.4292431,160.172968 21.0888961,160.00336 20.7395032,159.855235 C19.3362782,159.244646 17.7996281,158.916737 16.194004,158.916737 C9.8495273,158.916737 4.69343861,164.072825 4.69343861,170.417302 C4.69343861,176.760648 9.8495273,181.916737 16.194004,181.916737 C22.5362192,181.916737 27.6934386,176.760648 27.6934386,170.417302 C27.6934386,166.08664 25.2951789,162.321338 21.7571523,160.352753 Z" id="Fill-146" fill="#FFFFFE"></path>
                            <path d="M35.5884189,19.7926696 C35.2501503,19.9408815 34.8869924,20.0540203 34.5147838,20.1207723 C33.903864,20.2791667 33.2804995,20.3583639 32.6243264,20.3583639 C28.1566924,20.3583639 24.5251134,16.7266063 24.5251134,12.2587525 C24.5251134,7.77845341 28.1566924,4.14669582 32.6243264,4.14669582 C37.1044051,4.14669582 40.7371154,7.77845341 40.7371154,12.2587525 C40.7371154,15.6857287 38.609078,18.6171567 35.5884189,19.7926696 Z M32.6243264,0.752529855 C26.2899929,0.752529855 21.1311144,5.91166213 21.1311144,12.2587525 C21.1311144,18.594529 26.2899929,23.7525299 32.6243264,23.7525299 C33.5757775,23.7525299 34.4921572,23.6405224 35.3632836,23.4255585 C35.7241788,23.3350474 36.0862054,23.2320911 36.4369186,23.0974558 C40.9169973,21.5350081 44.1311144,17.2594904 44.1311144,12.2587525 C44.1311144,5.91166213 38.9722359,0.752529855 32.6243264,0.752529855 Z" id="Fill-147" fill="#FFFFFE"></path>
                            <path d="M120.506223,69.606001 C117.314575,69.606001 114.566432,67.7732415 113.230262,65.090851 C113.071868,64.7627644 112.924787,64.4120512 112.811648,64.0511559 L112.811648,64.0387113 C112.541246,63.2354648 112.394166,62.3869651 112.394166,61.493212 C112.394166,57.025578 116.025924,53.393999 120.506223,53.393999 C124.681047,53.393999 128.130651,56.5730448 128.560578,60.6345303 C128.59452,60.9173635 128.605834,61.2001968 128.605834,61.493212 L128.59452,61.7658633 C128.458754,66.1214953 124.883565,69.606001 120.506223,69.606001 Z M131.954744,60.5100836 C131.456933,54.6384653 126.513896,50 120.506223,50 C114.158001,50 109,55.1588785 109,61.493212 C109,62.8406296 109.237592,64.1292179 109.667519,65.3284309 L109.667519,65.3408756 C109.780658,65.6915888 109.926607,66.0411707 110.086133,66.3817019 C111.930297,70.2836695 115.900339,73 120.506223,73 C126.796744,73 131.920803,67.9191835 132,61.6414166 L132,61.493212 C132,61.1662568 131.988686,60.8381702 131.954744,60.5100836 Z" id="Fill-148" fill="#FFFFFE"></path>
                            <path d="M279.872684,25.0655292 C277.24828,25.0655292 274.918994,23.8210629 273.449057,21.8740388 C273.200298,21.5810235 272.997899,21.2529369 272.815853,20.9248504 C272.149858,19.748264 271.764282,18.4019778 271.764282,16.9527402 C271.764282,12.4851061 275.405204,8.8535272 279.872684,8.8535272 C284.337902,8.8535272 287.979955,12.4851061 287.979955,16.9527402 C287.979955,21.4339502 284.337902,25.0655292 279.872684,25.0655292 Z M279.872684,5.45952818 C273.528207,5.45952818 268.372119,10.6184067 268.372119,16.9527402 C268.372119,19.0004529 268.903558,20.9248504 269.843187,22.5879099 C270.034279,22.9148651 270.238939,23.2429517 270.453776,23.5484116 C272.533173,26.5125041 275.981872,28.4595282 279.872684,28.4595282 C286.21603,28.4595282 291.372119,23.3006497 291.372119,16.9527402 C291.372119,10.6184067 286.21603,5.45952818 279.872684,5.45952818 Z" id="Fill-149" fill="#FFFFFE"></path>
                            <path d="M412.239168,67.9975286 L410.190731,70.5344652 L365.585193,126 L363,124.002471 L407.616492,68.5466072 L409.65507,66 C410.464586,66.7306721 411.329968,67.3957986 412.239168,67.9975286" id="Fill-150" fill="#FFFFFE"></path>
                            <path d="M532,124.068096 L528.723583,125.248838 L402.154849,171 L401,167.771571 L527.183407,122.168144 L530.390691,121 C530.842884,122.063927 531.388009,123.094643 532,124.068096" id="Fill-151" fill="#FFFFFE"></path>
                            <path d="M477,247.091801 C476.319589,248.006624 475.707218,248.980985 475.173095,250 L472.428769,247.915028 L405,196.746759 L407.041234,194 L474.289695,245.029728 L477,247.091801" id="Fill-152" fill="#FFFFFE"></path>
                            <path d="M195,198.063511 L118.299986,236.467673 L115.229051,238 C114.901756,236.891605 114.496586,235.817491 114,234.80051 L117.046106,233.269326 L193.48654,195 L195,198.063511" id="Fill-153" fill="#FFFFFE"></path>
                            <path d="M206,171.06037 L204.276659,174 L79.9466861,101.64396 L77,99.9260678 C77.6564568,99.0004403 78.2233453,98.0273448 78.7233409,97 L81.670027,98.7178923 L206,171.06037" id="Fill-154" fill="#FFFFFE"></path>
                            <path d="M256,118.018101 L253.218969,120 L221.043558,76.7606096 L219,74.0246659 C219.975256,73.4293083 220.895374,72.7540445 221.756908,72 L223.800466,74.7336928 L256,118.018101" id="Fill-155" fill="#FFFFFE"></path>
                            <path d="M47.1311144,64.4563204 C46.7815681,64.5482475 46.4341997,64.6390397 46.0955427,64.7525299 L45.2788458,61.4601791 L35.9478113,23.3967002 L35.1311144,20.0816514 C35.4893721,20.0146922 35.8389184,19.901202 36.1645082,19.7525299 L36.9812051,23.0675787 L47.1311144,64.4563204" id="Fill-156" fill="#FFFFFE"></path>
                            <path d="M112.388793,64.7702359 C112.503698,65.131368 112.653074,65.4823114 112.813941,65.8106133 L109.620737,67.1023114 L81.4334417,78.4909906 L78.2505789,79.7702359 C78.1126932,79.4181604 77.9759565,79.0796699 77.8139407,78.7389152 L80.9968035,77.4494812 L109.195589,66.0608019 L109.195589,66.0483491 L112.388793,64.7702359" id="Fill-157" fill="#FFFFFE"></path>
                            <path d="M185,60.0652096 L181.528093,60.1834468 L132.459389,61.8817628 L129.034139,62 L129.045518,61.7409531 C129.045518,61.4625582 129.034139,61.1938373 129,60.9251164 L132.413871,60.8068793 L181.334641,59.1182372 L184.771271,59 C184.840686,59.3557865 184.919205,59.710498 185,60.0652096" id="Fill-158" fill="#FFFFFE"></path>
                            <path d="M45.6934386,109.292657 L44.1913665,112.389145 L21.2138455,159.830533 L19.709513,162.916737 C19.3828773,162.722492 19.0438091,162.5511 18.6934386,162.413986 L20.1966409,159.327782 L43.1278226,111.990372 L44.6208529,108.916737 C44.9712234,109.052708 45.3317659,109.179538 45.6934386,109.292657" id="Fill-159" fill="#FFFFFE"></path>
                            <path d="M73.6278814,259.458571 L28.0155812,287.511617 L25.1277803,289.29001 L18.2271936,293.540472 L17.6278814,292.566833 L24.5262023,288.326572 L27.416269,286.548179 L70.0354072,260.331333 L72.9356702,258.540472 C73.1509241,258.856706 73.3888363,259.162739 73.6278814,259.458571" id="Fill-160" fill="#FFFFFE"></path>
                            <path d="M340.656942,110.639025 L293.365071,150.104986 L290.370933,152.606889 L283.216248,158.58658 L282.594868,157.216832 L289.747204,151.251492 L292.743691,148.749589 L336.932183,111.866855 L339.939242,109.347412 C340.162422,109.792301 340.409095,110.222839 340.656942,110.639025" id="Fill-160-Copy" fill="#FFFFFE" transform="translate(311.625905, 133.966996) rotate(41.000000) translate(-311.625905, -133.966996) "></path>
                            <path d="M272.186059,22.1750523 L269.160988,23.8425452 L231.623381,44.552131 L228.585748,46.2297641 C228.460131,45.8579582 228.323095,45.4985459 228.186059,45.1492738 L231.200853,43.491921 L271.546558,21.2297641 C271.730414,21.5565026 271.934826,21.883241 272.186059,22.1750523" id="Fill-161" fill="#FFFFFE"></path>
                            <path d="M500.954517,45.3178744 C500.954517,45.5410628 500.965887,45.752657 501,45.9661836 L497.576239,46.0338164 L452.411253,46.9323671 L449,47 C449.023879,46.6801932 449.03525,46.3613527 449.03525,46.0338164 L452.446502,45.9661836 L497.543264,45.0676329 L500.976121,45 C500.954517,45.1062802 500.954517,45.2115942 500.954517,45.3178744" id="Fill-162" fill="#FFFFFE"></path>
                            <path d="M540,92.4029684 C539.671271,92.5981518 539.355011,92.7933352 539.037617,93 L513,52.641809 C513.328729,52.4466256 513.656325,52.2411089 513.952181,52 L515.810068,54.8933072 L538.142113,89.5096612 L540,92.4029684" id="Fill-163" fill="#FFFFFE"></path>
                            <path d="M496,237 C495.626059,236.977346 495.249697,236.967152 494.863655,236.967152 L494.777733,236.967152 L493,195.045307 L493.254135,195.057767 C493.579669,195.057767 493.895522,195.045307 494.210165,195 L496,237" id="Fill-164" fill="#FFFFFE"></path>
                            <path d="M564,271.825424 C563.920281,272.205085 563.875368,272.59661 563.875368,273 L560.506947,272.583559 L519.389754,267.564915 L516,267.149661 C516.111158,266.771186 516.224561,266.391525 516.314386,266 L519.694035,266.415254 L560.641684,271.410169 L564,271.825424" id="Fill-165" fill="#FFFFFE"></path>
                            <path d="M578,183.811486 L516.112018,245.530112 L513.637456,248 C513.433333,247.668548 513.22807,247.348526 513,247.02736 L577.190351,183 C577.440088,183.298307 577.703509,183.571469 578,183.811486" id="Fill-166" fill="#FFFFFE"></path>
                            <path d="M581,170.56997 C580.630058,170.684267 580.27052,170.830251 579.93526,171 L578.617341,167.843803 L564.34104,133.848772 L563,130.646177 C563.33526,130.453795 563.65896,130.227463 563.969942,130 L581,170.56997" id="Fill-167" fill="#FFFFFE"></path>
                            <path d="M383.976131,166.426822 L360.976131,142.426822" id="Line-2" stroke="#FFFFFF" stroke-linecap="square"></path>
                        </g>
                    </g>
                    <g id="Group-4-Copy-4" transform="translate(132.000000, 333.000000)" fill-rule="nonzero" stroke="#FFFFFF" stroke-width="2">
                        <path d="M10.999913,11 C13.426942,10.9999997 15.6149299,9.65966965 16.5434145,7.60413034 C17.4718991,5.54859103 16.9579853,3.1827475 15.2413589,1.61001244 C13.5247325,0.0372773734 10.9435386,-0.432548106 8.70162788,0.419659279 C6.45971713,1.27186666 4.99870644,3.27823706 5.00000086,5.50301351 C5.00529086,8.53804941 7.68896258,10.9967699 10.999913,11 Z" id="Shape"></path>
                        <path d="M2.75409836,23 L18.2459016,23 C19.7669482,23 21,22.0040438 21,20.7754696 L21,20.2666083 C20.8541726,15.6672472 16.1961442,12 10.5,12 C4.80385578,12 0.14582745,15.6672472 0,20.2666083 L0,20.7754696 C0,21.3654517 0.290163101,21.9312698 0.806656734,22.3484501 C1.32315037,22.7656305 2.02366606,23 2.75409836,23 Z" id="Shape"></path>
                    </g>
                    <g id="Group-4" transform="translate(62.000000, 186.000000)" fill-rule="nonzero" stroke="#FFFFFF" stroke-width="2">
                        <path d="M10.999913,11 C13.426942,10.9999997 15.6149299,9.65966965 16.5434145,7.60413034 C17.4718991,5.54859103 16.9579853,3.1827475 15.2413589,1.61001244 C13.5247325,0.0372773734 10.9435386,-0.432548106 8.70162788,0.419659279 C6.45971713,1.27186666 4.99870644,3.27823706 5.00000086,5.50301351 C5.00529086,8.53804941 7.68896258,10.9967699 10.999913,11 Z" id="Shape"></path>
                        <path d="M2.75409836,23 L18.2459016,23 C19.7669482,23 21,22.0040438 21,20.7754696 L21,20.2666083 C20.8541726,15.6672472 16.1961442,12 10.5,12 C4.80385578,12 0.14582745,15.6672472 0,20.2666083 L0,20.7754696 C0,21.3654517 0.290163101,21.9312698 0.806656734,22.3484501 C1.32315037,22.7656305 2.02366606,23 2.75409836,23 Z" id="Shape"></path>
                    </g>
                    <g id="Group-4-Copy" transform="translate(204.000000, 123.000000)" fill-rule="nonzero" stroke="#FFFFFF" stroke-width="2">
                        <path d="M10.999913,11 C13.426942,10.9999997 15.6149299,9.65966965 16.5434145,7.60413034 C17.4718991,5.54859103 16.9579853,3.1827475 15.2413589,1.61001244 C13.5247325,0.0372773734 10.9435386,-0.432548106 8.70162788,0.419659279 C6.45971713,1.27186666 4.99870644,3.27823706 5.00000086,5.50301351 C5.00529086,8.53804941 7.68896258,10.9967699 10.999913,11 Z" id="Shape"></path>
                        <path d="M2.75409836,23 L18.2459016,23 C19.7669482,23 21,22.0040438 21,20.7754696 L21,20.2666083 C20.8541726,15.6672472 16.1961442,12 10.5,12 C4.80385578,12 0.14582745,15.6672472 0,20.2666083 L0,20.7754696 C0,21.3654517 0.290163101,21.9312698 0.806656734,22.3484501 C1.32315037,22.7656305 2.02366606,23 2.75409836,23 Z" id="Shape"></path>
                    </g>
                    <g id="Group-4-Copy-8" transform="translate(245.000000, 256.000000)" fill-rule="nonzero" stroke="#FFFFFF" stroke-width="2">
                        <path d="M8.99992749,10 C11.0224517,9.99999971 12.8457749,8.78151786 13.6195121,6.91284576 C14.3932492,5.04417366 13.9649877,2.89340682 12.5344657,1.46364767 C11.1039437,0.0338885213 8.95294885,-0.393225551 7.0846899,0.381508435 C5.21643094,1.15624242 3.99892204,2.98021551 4.00000072,5.00273956 C4.00440905,7.7618631 6.24080215,9.99706359 8.99992749,10 Z" id="Shape"></path>
                        <path d="M2.36065574,20 L15.6393443,20 C16.9430984,20 18,19.0945853 18,17.9776996 L18,17.5150984 C17.875005,13.3338611 13.8824093,10 9,10 C4.11759067,10 0.124994957,13.3338611 0,17.5150984 L0,17.9776996 C0,18.514047 0.24871123,19.0284271 0.691420058,19.4076819 C1.13412889,19.7869368 1.73457091,20 2.36065574,20 Z" id="Shape"></path>
                    </g>
                    <g id="Group-4-Copy-2" transform="translate(552.000000, 108.000000)" fill-rule="nonzero" stroke="#FFFFFF" stroke-width="2">
                        <path d="M10.999913,11 C13.426942,10.9999997 15.6149299,9.65966965 16.5434145,7.60413034 C17.4718991,5.54859103 16.9579853,3.1827475 15.2413589,1.61001244 C13.5247325,0.0372773734 10.9435386,-0.432548106 8.70162788,0.419659279 C6.45971713,1.27186666 4.99870644,3.27823706 5.00000086,5.50301351 C5.00529086,8.53804941 7.68896258,10.9967699 10.999913,11 Z" id="Shape"></path>
                        <path d="M2.75409836,23 L18.2459016,23 C19.7669482,23 21,22.0040438 21,20.7754696 L21,20.2666083 C20.8541726,15.6672472 16.1961442,12 10.5,12 C4.80385578,12 0.14582745,15.6672472 0,20.2666083 L0,20.7754696 C0,21.3654517 0.290163101,21.9312698 0.806656734,22.3484501 C1.32315037,22.7656305 2.02366606,23 2.75409836,23 Z" id="Shape"></path>
                    </g>
                    <g id="Group-4-Copy-6" transform="translate(416.000000, 70.000000)" fill-rule="nonzero" stroke="#FFFFFF" stroke-width="2">
                        <path d="M10.999913,11 C13.426942,10.9999997 15.6149299,9.65966965 16.5434145,7.60413034 C17.4718991,5.54859103 16.9579853,3.1827475 15.2413589,1.61001244 C13.5247325,0.0372773734 10.9435386,-0.432548106 8.70162788,0.419659279 C6.45971713,1.27186666 4.99870644,3.27823706 5.00000086,5.50301351 C5.00529086,8.53804941 7.68896258,10.9967699 10.999913,11 Z" id="Shape"></path>
                        <path d="M2.75409836,23 L18.2459016,23 C19.7669482,23 21,22.0040438 21,20.7754696 L21,20.2666083 C20.8541726,15.6672472 16.1961442,12 10.5,12 C4.80385578,12 0.14582745,15.6672472 0,20.2666083 L0,20.7754696 C0,21.3654517 0.290163101,21.9312698 0.806656734,22.3484501 C1.32315037,22.7656305 2.02366606,23 2.75409836,23 Z" id="Shape"></path>
                    </g>
                    <g id="Group-4-Copy-7" transform="translate(414.000000, 215.000000)" fill-rule="nonzero" stroke="#FFFFFF" stroke-width="2">
                        <path d="M7.99994199,8 C9.61796136,7.99999977 11.0766199,7.02521429 11.6956097,5.53027661 C12.3145994,4.03533893 11.9719902,2.31472545 10.8275726,1.17091813 C9.68315498,0.027110817 7.96235908,-0.314580441 6.46775192,0.305206748 C4.97314476,0.924993937 3.99913763,2.38417241 4.00000057,4.00219164 C4.00352724,6.20949048 5.79264172,7.99765087 7.99994199,8 Z" id="Shape"></path>
                        <path d="M1.96721311,16 L13.0327869,16 C14.1192487,16 15,15.2756682 15,14.3821597 L15,14.0120787 C14.8958375,10.6670889 11.5686744,8 7.5,8 C3.43132556,8 0.104162464,10.6670889 0,14.0120787 L0,14.3821597 C0,14.8112376 0.207259358,15.2227416 0.576183381,15.5261456 C0.945107404,15.8295495 1.44547576,16 1.96721311,16 Z" id="Shape"></path>
                    </g>
                    <g id="Group-4-Copy-3" transform="translate(528.000000, 264.000000)" fill-rule="nonzero" stroke="#FFFFFF" stroke-width="2">
                        <path d="M10.999913,11 C13.426942,10.9999997 15.6149299,9.65966965 16.5434145,7.60413034 C17.4718991,5.54859103 16.9579853,3.1827475 15.2413589,1.61001244 C13.5247325,0.0372773734 10.9435386,-0.432548106 8.70162788,0.419659279 C6.45971713,1.27186666 4.99870644,3.27823706 5.00000086,5.50301351 C5.00529086,8.53804941 7.68896258,10.9967699 10.999913,11 Z" id="Shape"></path>
                        <path d="M2.75409836,23 L18.2459016,23 C19.7669482,23 21,22.0040438 21,20.7754696 L21,20.2666083 C20.8541726,15.6672472 16.1961442,12 10.5,12 C4.80385578,12 0.14582745,15.6672472 0,20.2666083 L0,20.7754696 C0,21.3654517 0.290163101,21.9312698 0.806656734,22.3484501 C1.32315037,22.7656305 2.02366606,23 2.75409836,23 Z" id="Shape"></path>
                    </g>
                    <path d="M276.5,259.5 L374.5,189.5" id="Line" stroke="#FFFFFF" stroke-width="3" stroke-linecap="square"></path>
                </g>
            </g>
        </g>
    </g>
</svg>