<?xml version="1.0" encoding="UTF-8"?>
<svg width="343px" height="223px" viewBox="0 0 343 223" version="1.1" xmlns="http://www.w3.org/2000/svg" xmlns:xlink="http://www.w3.org/1999/xlink">
    <!-- Generator: sketchtool 51.3 (57544) - http://www.bohemiancoding.com/sketch -->
    <title>ADB80583-7428-49EB-9D38-B00362D687DE</title>
    <desc>Created with sketchtool.</desc>
    <defs>
        <linearGradient x1="16.5434697%" y1="12.8427587%" x2="83.4565303%" y2="87.1572413%" id="linearGradient-1">
            <stop stop-color="#18449D" offset="0%"></stop>
            <stop stop-color="#3536BD" offset="100%"></stop>
        </linearGradient>
        <filter x="-3.8%" y="-3.4%" width="107.7%" height="109.4%" filterUnits="objectBoundingBox" id="filter-2">
            <feOffset dx="0" dy="2" in="SourceAlpha" result="shadowOffsetOuter1"></feOffset>
            <feGaussianBlur stdDeviation="2" in="shadowOffsetOuter1" result="shadowBlurOuter1"></feGaussianBlur>
            <feColorMatrix values="0 0 0 0 0   0 0 0 0 0   0 0 0 0 0  0 0 0 0.229789402 0" type="matrix" in="shadowBlurOuter1" result="shadowMatrixOuter1"></feColorMatrix>
            <feMerge>
                <feMergeNode in="shadowMatrixOuter1"></feMergeNode>
                <feMergeNode in="SourceGraphic"></feMergeNode>
            </feMerge>
        </filter>
        <linearGradient x1="6.85450342%" y1="0%" x2="95.9972909%" y2="74.6509306%" id="linearGradient-3">
            <stop stop-color="#48D9FF" offset="0%"></stop>
            <stop stop-color="#4677FF" offset="100%"></stop>
        </linearGradient>
        <path d="M90.1516057,148.458199 L0,148.414138 L0,27.0674365 L182.654028,27.0674365 L182.654028,68.4354504 C182.654028,71.7491589 179.967737,74.4354504 176.654028,74.4354504 L175.73448,74.4354504 C172.491791,74.4354504 169.83583,71.859039 169.737253,68.617849 L168.827533,38.7064342 L14.9105329,38.7064342 L14.9105329,134.944705 L90.1516051,134.929184 C93.8880672,134.928413 96.9176931,137.956789 96.9184639,141.693251 C96.918464,141.693716 96.9184641,141.694182 96.9184641,141.694647 L96.9184641,141.694647 C96.9184641,145.430054 93.8903184,148.458199 90.1549114,148.458199 C90.1538095,148.458199 90.1527076,148.458199 90.1516057,148.458199 Z" id="path-4"></path>
        <linearGradient x1="6.85450342%" y1="0%" x2="74.2939033%" y2="100%" id="linearGradient-5">
            <stop stop-color="#48D9FF" offset="0%"></stop>
            <stop stop-color="#4677FF" offset="100%"></stop>
        </linearGradient>
    </defs>
    <g id="Page-1" stroke="none" stroke-width="1" fill="none" fill-rule="evenodd">
        <g id="all_cpop_size" transform="translate(-151.000000, -1693.000000)">
            <g id="img_block_3_offline" transform="translate(151.000000, 1693.000000)">
                <path d="M36.5918343,65.2969004 L93.1918715,14.411165 C116.253553,-6.32222414 151.78196,-4.46307855 172.546791,18.5636829 L226.566981,78.4683378 C247.331812,101.495099 245.469847,136.96971 222.408166,157.7031 L165.808128,208.588835 C142.746447,229.322224 107.21804,227.463079 86.4532091,204.436317 L32.4330192,144.531662 C11.6681884,121.504901 13.5301533,86.0302895 36.5918343,65.2969004 Z" id="Rectangle-Copy-3" fill="url(#linearGradient-1)"></path>
                <g id="Group-2" transform="translate(81.000000, 47.000000)">
                    <g id="noun_offline_36744" fill-rule="nonzero">
                        <g id="Group">
                            <g filter="url(#filter-2)" id="Shape">
                                <g>
                                    <use fill="url(#linearGradient-3)" xlink:href="#path-4"></use>
                                    <use fill="#318BF4" xlink:href="#path-4"></use>
                                </g>
                                <path d="M0,0 L0,40.6011548 L182.654028,40.6011548 L182.654028,0 L0,0 Z M29.8210659,27.0674365 L14.9105329,27.0674365 L14.9105329,13.5337183 L29.8210659,13.5337183 L29.8210659,27.0674365 Z M52.1868653,27.0674365 L37.2763323,27.0674365 L37.2763323,13.5337183 L52.1868653,13.5337183 L52.1868653,27.0674365 Z M74.5526647,27.0674365 L59.6421317,27.0674365 L59.6421317,13.5337183 L74.5526647,13.5337183 L74.5526647,27.0674365 Z" fill="#318BF4"></path>
                            </g>
                        </g>
                    </g>
                    <g id="noun_cancel_653848" transform="translate(104.246445, 74.090395)">
                        <ellipse id="Oval" fill="#FFFFFF" cx="43.4999082" cy="42.2800333" rx="33.7611227" ry="33.8240266"></ellipse>
                        <path d="M41.8767773,0 C18.7498842,0 0,18.7848191 0,41.9548023 C0,65.1247854 18.7498842,83.9096045 41.8767773,83.9096045 C65.0036703,83.9096045 83.7535545,65.1247854 83.7535545,41.9548023 C83.7535545,18.7848191 65.0036703,0 41.8767773,0 Z M60.1402081,55.6974878 C61.3959864,56.9556059 61.3959864,58.9941436 60.1402081,60.2522616 C59.512319,60.8813207 58.6894199,61.1958502 57.8675923,61.1958502 C57.0457647,61.1958502 56.2228656,60.8813207 55.5949764,60.2533351 L41.8767773,46.5095761 L28.1585781,60.2511881 C27.5306889,60.8791737 26.7077898,61.1937032 25.8859622,61.1937032 C25.0641346,61.1937032 24.2412355,60.8791737 23.6133464,60.2501147 C22.3575681,58.9930701 22.3575681,56.9534589 23.6133464,55.6953408 L37.3304741,41.9548023 L23.6133464,28.2121167 C22.3575681,26.9539987 22.3575681,24.915461 23.6133464,23.6573429 C24.8691247,22.3992248 26.9027998,22.4002983 28.1585781,23.6573429 L41.8767773,37.4000284 L55.5949764,23.6562694 C56.8507547,22.3992248 58.8844298,22.3992248 60.1402081,23.6562694 C61.3959864,24.913314 61.3959864,26.9529252 60.1402081,28.2110433 L46.4220089,41.9548023 L60.1402081,55.6974878 Z" id="Shape" fill="url(#linearGradient-5)" fill-rule="nonzero"></path>
                    </g>
                </g>
                <g id="noun_offline_186897" transform="translate(0.000000, 3.000000)" fill="#2293EC" fill-opacity="0.0963541667" fill-rule="nonzero">
                    <path d="M30.1299626,16.2206361 L33.7424932,12.6014976 C34.2383307,12.1047531 34.2383307,11.3241546 33.7424932,10.8274101 C33.2466557,10.3306656 32.4674824,10.3306656 31.9716449,10.8274101 L1.01721614,41.8384593 C0.521378613,42.3352038 0.521378613,43.1158023 1.01721614,43.6125468 C1.26513491,43.860919 1.58388761,43.9673643 1.90264031,43.9673643 C2.221393,43.9673643 2.5401457,43.860919 2.78806447,43.6125468 L6.40059505,39.9934083 C9.34020327,42.5480943 13.2006526,44.0738095 17.3798547,44.0738095 C26.6590999,44.0738095 34.2029138,36.5161969 34.2029138,27.2199785 C34.2029138,23.033132 32.6445672,19.1656213 30.1299626,16.2206361 Z M29.9528778,20.336519 L25.9861775,20.336519 L28.3591143,17.9947235 C28.9612027,18.7398403 29.4924572,19.5204388 29.9528778,20.336519 Z M23.400739,27.2199785 C23.400739,28.7811754 23.2944881,30.2359272 23.1174032,31.5842337 L14.7944161,31.5842337 L23.1528202,23.2105407 C23.2944881,24.452402 23.400739,25.8007085 23.400739,27.2199785 Z M8.17144338,38.2193208 L10.1547935,36.2323429 C10.686048,37.8999851 11.3589704,39.3902186 12.1381436,40.5611163 C10.686048,39.9934083 9.34020327,39.1773281 8.17144338,38.2193208 Z M17.3798547,41.590087 C15.3965045,41.590087 13.2714866,38.7515471 12.1735606,34.2098831 L12.3152285,34.0679561 L22.6569827,34.0679561 C21.5236397,38.7160653 19.3632048,41.590087 17.3798547,41.590087 Z M22.6215657,40.5611163 C23.7194917,38.8579923 24.6049158,36.6581239 25.1715873,34.0679561 L29.9528778,34.0679561 C28.3591143,37.0129413 25.7736757,39.3192551 22.6215657,40.5611163 Z M25.6320079,31.5842337 C25.8090927,30.2004454 25.9153436,28.7456937 25.9153436,27.2199785 C25.9153436,25.6942632 25.8090927,24.2395115 25.6320079,22.8557232 L31.0508037,22.8557232 C31.4758073,24.2395115 31.7237261,25.6942632 31.7237261,27.2199785 C31.7237261,28.7456937 31.4758073,30.2004454 31.0508037,31.5842337 L25.6320079,31.5842337 Z" id="Shape"></path>
                    <path d="M4.77185323,34.4961134 C4.593799,34.2107055 4.41574478,33.9609736 4.2733014,33.6755658 L5.59090266,33.6755658 L8.08366181,31.178247 L3.20497605,31.178247 C2.77764591,29.7868837 2.52836999,28.3241684 2.52836999,26.7901011 C2.52836999,25.2560339 2.77764591,23.7933186 3.20497605,22.4019552 L8.65343533,22.4019552 C8.4753811,23.7933186 8.36854857,25.2560339 8.36854857,26.7901011 C8.36854857,28.1457885 8.43977026,29.4657998 8.58221364,30.7144592 L10.8969186,28.3955203 C10.8613077,27.8247046 10.8613077,27.2895649 10.8613077,26.7544251 C10.8613077,25.1846819 10.9681402,23.7219666 11.1461945,22.3662793 L16.8439297,22.3662793 L19.3366888,19.8689605 L11.6447463,19.8689605 C12.7486825,15.2310827 14.920944,12.3413281 16.9151514,12.3413281 C18.5888611,12.3413281 20.3694033,14.3391831 21.5445612,17.6927255 L23.4675468,15.7662224 C23.0758275,14.8743229 22.6484974,14.0537753 22.1855564,13.3402556 C23.0402167,13.6613395 23.8592661,14.0894513 24.6427047,14.588915 L26.4588578,12.7694399 C23.7168227,10.9142888 20.440625,9.80833333 16.9151514,9.80833333 C7.58510998,9.80833333 0,17.4073177 0,26.7544251 C0,30.2863474 1.10393619,33.5685378 2.95570013,36.3155885 L4.77185323,34.4961134 Z M11.6447463,13.3402556 C10.5408101,15.0527028 9.65053899,17.2646137 9.08076547,19.8689605 L4.2733014,19.8689605 C5.87578942,16.9078539 8.4753811,14.588915 11.6447463,13.3402556 Z" id="Shape"></path>
                    <path d="M222.080985,4.73273475 L224.234609,2.57517143 C224.530205,2.27903529 224.530205,1.8136785 224.234609,1.51754236 C223.939014,1.22140622 223.474507,1.22140622 223.178911,1.51754236 L204.72531,20.0048986 C204.429714,20.3010347 204.429714,20.7663915 204.72531,21.0625277 C204.873107,21.2105957 205.063133,21.2740535 205.253159,21.2740535 C205.443184,21.2740535 205.63321,21.2105957 205.781008,21.0625277 L207.934632,18.9049644 C209.68709,20.4279502 211.988512,21.3375112 214.47996,21.3375112 C220.011817,21.3375112 224.509091,16.8320114 224.509091,11.290035 C224.509091,8.7940304 223.580077,6.48839901 222.080985,4.73273475 Z M221.975416,7.1864342 L219.610652,7.1864342 L221.025287,5.79036382 C221.384225,6.23456803 221.700934,6.69992483 221.975416,7.1864342 Z M218.069333,11.290035 C218.069333,12.2207486 218.005991,13.0880044 217.900421,13.8918025 L212.93864,13.8918025 L217.921535,8.8997933 C218.005991,9.64013366 218.069333,10.4439318 218.069333,11.290035 Z M208.99033,17.8473353 L210.172712,16.6627907 C210.489421,17.656962 210.890586,18.5453705 211.355093,19.2434057 C210.489421,18.9049644 209.68709,18.418455 208.99033,17.8473353 Z M214.47996,19.8568305 C213.297578,19.8568305 212.03074,18.164624 211.376207,15.4570936 L211.460663,15.3724832 L217.62594,15.3724832 C216.950293,18.1434714 215.662341,19.8568305 214.47996,19.8568305 Z M217.604826,19.2434057 C218.259359,18.2280817 218.787208,16.9166217 219.125031,15.3724832 L221.975416,15.3724832 C221.025287,17.1281475 219.483968,18.5030653 217.604826,19.2434057 Z M219.399512,13.8918025 C219.505082,13.0668519 219.568424,12.199596 219.568424,11.290035 C219.568424,10.380474 219.505082,9.51321817 219.399512,8.68826749 L222.629948,8.68826749 C222.883316,9.51321817 223.031114,10.380474 223.031114,11.290035 C223.031114,12.199596 222.883316,13.0668519 222.629948,13.8918025 L219.399512,13.8918025 Z" id="Shape-Copy-11"></path>
                    <path d="M206.767942,15.7024463 C206.659372,15.5284171 206.550802,15.3761415 206.463947,15.2021123 L207.267362,15.2021123 L208.787337,13.679357 L205.812529,13.679357 C205.551962,12.8309647 205.399964,11.9390651 205.399964,11.0036583 C205.399964,10.0682514 205.551962,9.17635185 205.812529,8.32795958 L209.13476,8.32795958 C209.02619,9.17635185 208.961049,10.0682514 208.961049,11.0036583 C208.961049,11.8302969 209.004476,12.6351819 209.091332,13.3965596 L210.502738,11.9825724 C210.481024,11.6345141 210.481024,11.3082094 210.481024,10.9819046 C210.481024,10.0247441 210.546165,9.13284455 210.654735,8.30620593 L214.128964,8.30620593 L215.648939,6.78345057 L210.95873,6.78345057 C211.631862,3.95547633 212.956412,2.19343084 214.172392,2.19343084 C215.192946,2.19343084 216.278643,3.41163513 216.995203,5.45647804 L218.167755,4.28178105 C217.928902,3.73793985 217.668334,3.23760595 217.386053,2.80253299 C217.907188,2.99831582 218.406608,3.25935959 218.884315,3.56391067 L219.991725,2.45447462 C218.319752,1.32328492 216.322071,0.648921833 214.172392,0.648921833 C208.483342,0.648921833 203.858275,5.28244886 203.858275,10.9819046 C203.858275,13.1355158 204.531407,15.1368514 205.660531,16.8118823 L206.767942,15.7024463 Z M210.95873,2.80253299 C210.285598,3.84670809 209.74275,5.19543427 209.395327,6.78345057 L206.463947,6.78345057 C207.441073,4.97789779 209.02619,3.56391067 210.95873,2.80253299 Z" id="Shape-Copy-10"></path>
                    <path d="M54.2335108,192.574482 L57.0123805,189.790529 C57.3937939,189.408418 57.3937939,188.807958 57.0123805,188.425847 C56.630967,188.043735 56.0316029,188.043735 55.6501894,188.425847 L31.8390904,212.2805 C31.4576769,212.662611 31.4576769,213.263071 31.8390904,213.645183 C32.0297972,213.836238 32.2749915,213.918119 32.5201859,213.918119 C32.7653803,213.918119 33.0105747,213.836238 33.2012814,213.645183 L35.9801511,210.86123 C38.2413882,212.826373 41.2109646,214 44.4257354,214 C51.5636164,214 57.3665501,208.186452 57.3665501,201.035515 C57.3665501,197.814863 56.167822,194.839855 54.2335108,192.574482 Z M54.0972917,195.740546 L51.0459838,195.740546 L52.8713198,193.939165 C53.3344647,194.512331 53.743122,195.112792 54.0972917,195.740546 Z M49.0571849,201.035515 C49.0571849,202.236435 48.9754534,203.355475 48.8392343,204.392634 L42.4369365,204.392634 L48.8664782,197.951332 C48.9754534,198.90661 49.0571849,199.943768 49.0571849,201.035515 Z M37.3423421,209.496547 L38.8679961,207.968103 C39.2766534,209.250904 39.794286,210.397238 40.39365,211.297928 C39.2766534,210.86123 38.2413882,210.233476 37.3423421,209.496547 Z M44.4257354,212.089444 C42.9000815,212.089444 41.2654523,209.905952 40.4208938,206.412364 L40.5298691,206.30319 L48.4850647,206.30319 C47.6132624,209.878658 45.9513894,212.089444 44.4257354,212.089444 Z M48.4578209,211.297928 C49.3023793,209.987833 49.9834748,208.295626 50.4193759,206.30319 L54.0972917,206.30319 C52.8713198,208.568563 50.8825209,210.34265 48.4578209,211.297928 Z M50.7735456,204.392634 C50.9097647,203.328181 50.9914961,202.209142 50.9914961,201.035515 C50.9914961,199.861887 50.9097647,198.742848 50.7735456,197.678395 L54.9418501,197.678395 C55.2687759,198.742848 55.4594827,199.861887 55.4594827,201.035515 C55.4594827,202.209142 55.2687759,203.328181 54.9418501,204.392634 L50.7735456,204.392634 Z" id="Shape-Copy-9"></path>
                    <path d="M34.6320656,206.761256 C34.4930964,206.538499 34.3541273,206.343586 34.2429519,206.120829 L35.2713237,206.120829 L37.2168918,204.171702 L33.409137,204.171702 C33.0756111,203.08576 32.8810543,201.944128 32.8810543,200.746807 C32.8810543,199.549487 33.0756111,198.407855 33.409137,197.321913 L37.6615931,197.321913 C37.5226239,198.407855 37.4392424,199.549487 37.4392424,200.746807 C37.4392424,201.804905 37.4948301,202.835158 37.6060054,203.809721 L39.4126044,201.999818 C39.3848105,201.554303 39.3848105,201.136633 39.3848105,200.718963 C39.3848105,199.493797 39.468192,198.352166 39.6071612,197.294068 L44.054174,197.294068 L45.9997421,195.344942 L39.9962748,195.344942 C40.8578835,191.725135 42.5533072,189.469716 44.1097617,189.469716 C45.4160717,189.469716 46.8057632,191.029018 47.7229596,193.646417 L49.2238264,192.142805 C48.9180943,191.446688 48.5845683,190.80626 48.2232485,190.249367 C48.8903005,190.499969 49.5295586,190.834105 50.1410228,191.223931 L51.5585082,189.803852 C49.4183832,188.35593 46.8613509,187.492745 44.1097617,187.492745 C36.8277781,187.492745 30.9076923,193.423659 30.9076923,200.718963 C30.9076923,203.475585 31.769301,206.037295 33.2145802,208.181334 L34.6320656,206.761256 Z M39.9962748,190.249367 C39.1346661,191.585911 38.4398203,193.312281 37.995119,195.344942 L34.2429519,195.344942 C35.4936743,193.033834 37.5226239,191.223931 39.9962748,190.249367 Z" id="Shape-Copy-6"></path>
                    <path d="M339.32442,139.074482 L342.10329,136.290529 C342.484703,135.908418 342.484703,135.307958 342.10329,134.925847 C341.721876,134.543735 341.122512,134.543735 340.741099,134.925847 L316.93,158.7805 C316.548586,159.162611 316.548586,159.763071 316.93,160.145183 C317.120706,160.336238 317.365901,160.418119 317.611095,160.418119 C317.856289,160.418119 318.101484,160.336238 318.292191,160.145183 L321.07106,157.36123 C323.332297,159.326373 326.301874,160.5 329.516645,160.5 C336.654525,160.5 342.457459,154.686452 342.457459,147.535515 C342.457459,144.314863 341.258731,141.339855 339.32442,139.074482 Z M339.188201,142.240546 L336.136893,142.240546 L337.962229,140.439165 C338.425374,141.012331 338.834031,141.612792 339.188201,142.240546 Z M334.148094,147.535515 C334.148094,148.736435 334.066363,149.855475 333.930143,150.892634 L327.527846,150.892634 L333.957387,144.451332 C334.066363,145.40661 334.148094,146.443768 334.148094,147.535515 Z M322.433251,155.996547 L323.958905,154.468103 C324.367562,155.750904 324.885195,156.897238 325.484559,157.797928 C324.367562,157.36123 323.332297,156.733476 322.433251,155.996547 Z M329.516645,158.589444 C327.990991,158.589444 326.356361,156.405952 325.511803,152.912364 L325.620778,152.80319 L333.575974,152.80319 C332.704172,156.378658 331.042298,158.589444 329.516645,158.589444 Z M333.54873,157.797928 C334.393288,156.487833 335.074384,154.795626 335.510285,152.80319 L339.188201,152.80319 C337.962229,155.068563 335.97343,156.84265 333.54873,157.797928 Z M335.864455,150.892634 C336.000674,149.828181 336.082405,148.709142 336.082405,147.535515 C336.082405,146.361887 336.000674,145.242848 335.864455,144.178395 L340.032759,144.178395 C340.359685,145.242848 340.550392,146.361887 340.550392,147.535515 C340.550392,148.709142 340.359685,149.828181 340.032759,150.892634 L335.864455,150.892634 Z" id="Shape-Copy-13"></path>
                    <path d="M319.722975,153.261256 C319.584005,153.038499 319.445036,152.843586 319.333861,152.620829 L320.362233,152.620829 L322.307801,150.671702 L318.500046,150.671702 C318.16652,149.58576 317.971963,148.444128 317.971963,147.246807 C317.971963,146.049487 318.16652,144.907855 318.500046,143.821913 L322.752502,143.821913 C322.613533,144.907855 322.530151,146.049487 322.530151,147.246807 C322.530151,148.304905 322.585739,149.335158 322.696914,150.309721 L324.503513,148.499818 C324.47572,148.054303 324.47572,147.636633 324.47572,147.218963 C324.47572,145.993797 324.559101,144.852166 324.69807,143.794068 L329.145083,143.794068 L331.090651,141.844942 L325.087184,141.844942 C325.948793,138.225135 327.644216,135.969716 329.200671,135.969716 C330.506981,135.969716 331.896672,137.529018 332.813869,140.146417 L334.314736,138.642805 C334.009003,137.946688 333.675477,137.30626 333.314158,136.749367 C333.98121,136.999969 334.620468,137.334105 335.231932,137.723931 L336.649417,136.303852 C334.509292,134.85593 331.95226,133.992745 329.200671,133.992745 C321.918687,133.992745 315.998601,139.923659 315.998601,147.218963 C315.998601,149.975585 316.86021,152.537295 318.305489,154.681334 L319.722975,153.261256 Z M325.087184,136.749367 C324.225575,138.085911 323.530729,139.812281 323.086028,141.844942 L319.333861,141.844942 C320.584583,139.533834 322.613533,137.723931 325.087184,136.749367 Z" id="Shape-Copy-12"></path>
                </g>
            </g>
        </g>
    </g>
</svg>