<?xml version="1.0" encoding="UTF-8"?>
<svg width="337px" height="224px" viewBox="0 0 337 224" version="1.1" xmlns="http://www.w3.org/2000/svg" xmlns:xlink="http://www.w3.org/1999/xlink">
    <!-- Generator: sketchtool 51.3 (57544) - http://www.bohemiancoding.com/sketch -->
    <title>E23079AB-C727-45E5-A2BF-E293DF719378</title>
    <desc>Created with sketchtool.</desc>
    <defs>
        <linearGradient x1="16.5434697%" y1="12.8427587%" x2="83.4565303%" y2="87.1572413%" id="linearGradient-1">
            <stop stop-color="#18449D" offset="0%"></stop>
            <stop stop-color="#3536BD" offset="100%"></stop>
        </linearGradient>
        <linearGradient x1="22.9355666%" y1="10.8607909%" x2="103.893007%" y2="91.7899728%" id="linearGradient-2">
            <stop stop-color="#48D9FF" offset="0%"></stop>
            <stop stop-color="#4677FF" offset="100%"></stop>
        </linearGradient>
        <path d="M238.895851,53.3936105 C225.491392,52.6584744 212.23236,56.300478 201.417262,63.6882652 C191.055848,70.4840792 181.569283,78.3617757 173.143941,87.1665884 C164.732271,78.3641575 155.260521,70.4865503 144.914455,63.6882652 C134.084211,56.2975653 120.810403,52.6557623 107.392032,53.3936105 C82.0761366,56.2617282 63.1678757,76.393832 63.5574261,100.065425 C63.1904907,123.721565 82.0930321,143.830032 107.392032,146.696548 C108.79474,146.696548 110.197447,146.696548 111.775493,146.696548 C123.733029,146.361571 135.307381,142.704601 145.002124,136.198442 C155.285282,129.512157 164.725277,121.772995 173.143941,113.127022 C181.568097,121.905928 191.03855,129.768806 201.373428,136.564655 C211.063827,142.997518 222.603521,146.596505 234.51239,146.9 C235.958932,146.9 237.361639,146.9 238.895851,146.9 C264.279513,144.025644 283.210744,123.79879 282.730457,100.065425 C283.120007,76.393832 264.211746,56.2617282 238.895851,53.3936105 Z M134.314969,122.96403 C127.1102,128.213047 118.177573,130.924619 109.067827,130.628009 C93.4077495,128.70594 81.857775,115.92289 82.3742334,101.084606 C81.9373445,86.2645045 93.4426419,73.5131416 109.067827,71.5 L111.653906,71.5 C119.844763,71.8370807 127.739274,74.4782977 134.314969,79.0815704 C143.812535,85.4810915 152.490505,92.892189 160.175758,101.167015 C152.463489,109.331829 143.787345,116.6446 134.314969,122.96403 Z M237.223082,130.619811 C228.134212,130.966687 219.202561,128.315415 211.97594,123.125446 C202.489326,116.732919 193.81261,109.341449 186.115152,101.095305 C193.800405,92.8257723 202.478375,85.4194151 211.97594,79.0239872 C219.20429,73.837142 228.134709,71.1862351 237.223082,71.5296218 C252.848267,73.5414757 264.353565,86.2846826 263.916676,101.095305 C264.433134,115.924098 252.88316,128.698972 237.223082,130.619811 Z" id="path-3"></path>
        <filter x="-3.2%" y="-5.3%" width="106.4%" height="115.0%" filterUnits="objectBoundingBox" id="filter-4">
            <feOffset dx="0" dy="2" in="SourceAlpha" result="shadowOffsetOuter1"></feOffset>
            <feGaussianBlur stdDeviation="2" in="shadowOffsetOuter1" result="shadowBlurOuter1"></feGaussianBlur>
            <feColorMatrix values="0 0 0 0 0   0 0 0 0 0   0 0 0 0 0  0 0 0 0.242951766 0" type="matrix" in="shadowBlurOuter1"></feColorMatrix>
        </filter>
    </defs>
    <g id="Page-1" stroke="none" stroke-width="1" fill="none" fill-rule="evenodd">
        <g id="all_cpop_size" transform="translate(-830.000000, -1397.000000)">
            <g id="img_block_3_unlimited" transform="translate(830.000000, 1397.000000)">
                <path d="M131.675206,65.5897116 L188.529055,14.475789 C211.694151,-6.35057492 247.381879,-4.48309235 268.239826,18.6469281 L322.502259,78.8202138 C343.360205,101.950234 341.489891,137.583924 318.324794,158.410288 L261.470945,209.524211 C238.305849,230.350575 202.618121,228.483092 181.760174,205.353072 L127.497741,145.179786 C106.639795,122.049766 108.510109,86.4160756 131.675206,65.5897116 Z" id="Rectangle-Copy-2" fill="url(#linearGradient-1)"></path>
                <g id="noun_Infinity_1625098" transform="translate(0.000000, 12.000000)" fill-rule="nonzero">
                    <g id="Shape">
                        <use fill="black" fill-opacity="1" filter="url(#filter-4)" xlink:href="#path-3"></use>
                        <use fill="url(#linearGradient-2)" xlink:href="#path-3"></use>
                    </g>
                    <g id="noun_users_219078">
                        <g id="Group">
                            <path d="M33.1922399,127.036051 C31.8964626,126.77736 30.9554611,125.935664 30.6731185,124.775351 C30.5652074,124.345535 30.5187486,122.999539 30.4836933,121.754613 C32.9350272,119.727709 34.9897719,116.804877 36.2057248,113.614492 C37.2673079,113.276041 38.1743098,111.926457 38.5058564,110.095784 C38.8145961,108.218479 38.3861194,106.636579 37.4666581,105.977613 C37.4740493,101.901009 37.4309693,98.070226 35.9200032,95.2400251 C34.1433776,91.913753 30.6348954,90.3601283 24.7511028,90.35 C18.9948608,90.3601283 15.4863786,91.913753 13.7097529,95.2400251 C12.2097681,98.0501805 12.155707,101.848047 12.164154,105.977613 C11.243848,106.636579 10.8151601,108.219956 11.1258005,110.108866 C11.4554467,111.928145 12.3626597,113.276041 13.4240315,113.614492 C14.6399844,116.804877 16.6949404,119.727709 19.146063,121.754613 C19.1118525,122.972952 19.0653937,124.34237 18.9551597,124.782103 C18.6742953,125.935664 17.733294,126.77736 16.4366719,127.036051 C11.7405346,127.982195 5.0166829,132.779167 1.12935064,137.958057 C-0.0781550432,139.564644 -0.34888309,141.830408 0.470058431,143.468645 C1.15680365,144.843128 2.49650563,145.6 4.24082143,145.6 L45.3889348,145.6 C47.1332506,145.6 48.4729525,144.843128 49.1596978,143.468645 C49.9788503,141.830408 49.7079112,139.564644 48.5004055,137.958057 C44.6130735,132.779167 37.8894332,127.982195 33.1922399,127.036051 Z M47.6381733,142.708608 C47.2428514,143.500296 46.4862068,143.90036 45.3889351,143.90036 L4.24082161,143.90036 C3.14354992,143.90036 2.38711655,143.500296 1.99158343,142.708608 C1.46681052,141.659494 1.68094323,140.054384 2.4899593,138.977208 C6.09811667,134.171795 12.505415,129.562617 16.7713863,128.702563 C18.7034378,128.317692 20.1736468,126.968108 20.6061357,125.190396 C20.7607168,124.576163 20.8054861,123.301486 20.8587025,121.379447 C20.8663048,121.110628 20.7450897,120.853206 20.532224,120.687357 C18.0903932,118.780088 15.965749,115.742681 14.8494713,112.562424 C14.7288898,112.21701 14.4066348,111.992924 14.0495358,111.992924 C14.01617,111.992924 13.9830154,111.994612 13.9490159,111.999465 C13.7661372,111.991447 13.0743239,111.319187 12.8019066,109.820212 C12.5427933,108.240001 13.0219523,107.37847 13.1706203,107.350196 C13.5743893,107.2755 13.8666573,106.82585 13.8658126,106.415869 C13.8552538,102.219837 13.8468068,98.5962596 15.210583,96.0416303 C16.1226532,94.3337613 18.1045423,92.0614558 24.8754861,92.0498505 C31.5252149,92.0614558 33.507104,94.3337613 34.4191741,96.0416303 C35.7829503,98.5962596 35.7747143,102.219837 35.7639445,106.513774 C35.7630997,106.923756 36.0553676,107.2755 36.4591367,107.350196 C36.6078048,107.37847 37.0871748,108.240001 36.8295398,109.806919 C36.555433,111.319187 35.8636197,111.991446 35.6832751,111.999465 C35.291332,111.933209 34.9124818,112.18557 34.7804966,112.562424 C33.6640079,115.742681 31.5395748,118.780088 29.0975327,120.687356 C28.8848782,120.853206 28.7651412,121.158737 28.7727437,121.429244 C28.8242708,123.301486 28.8690401,124.576163 29.0219317,125.183855 C29.4563212,126.968108 30.9263191,128.317691 32.8577371,128.702563 C37.1243419,129.562617 43.5316402,134.171795 47.1397976,138.977207 C47.9488135,140.054385 48.1631574,141.659494 47.6381733,142.708608 Z" id="Shape-Copy" fill="#2A9BD7" opacity="0.360212054"></path>
                            <path d="M128.462135,184.071004 C127.700232,183.918897 127.146933,183.423988 126.980919,182.741737 C126.917468,182.48901 126.890151,181.697578 126.869539,180.965576 C128.310897,179.773778 129.519065,178.055184 130.234032,176.179272 C130.858232,175.980266 131.391539,175.186725 131.586485,174.110309 C131.76802,173.006474 131.516081,172.076334 130.975447,171.688869 C130.979793,169.29187 130.954463,167.03941 130.066031,165.375282 C129.021394,163.41947 126.958444,162.505955 123.498837,162.5 C120.114229,162.505955 118.051279,163.41947 117.006642,165.375282 C116.124667,167.027624 116.09288,169.260728 116.097847,171.688869 C115.556717,172.076334 115.304653,173.007342 115.487306,174.118001 C115.681134,175.187718 116.214566,175.980266 116.838641,176.179272 C117.553608,178.055184 118.7619,179.773778 120.203134,180.965576 C120.183019,181.681946 120.155701,182.487149 120.090885,182.745707 C119.92574,183.423988 119.372441,183.918897 118.610041,184.071004 C115.848763,184.627327 111.89521,187.447895 109.609501,190.493026 C108.8995,191.437682 108.740315,192.769927 109.221844,193.733193 C109.625643,194.541374 110.413373,194.986407 111.439012,194.986407 L135.633661,194.986407 C136.6593,194.986407 137.44703,194.541374 137.850829,193.733193 C138.332482,192.769927 138.173173,191.437682 137.463173,190.493026 C135.177463,187.447895 131.224035,184.627327 128.462135,184.071004 Z M136.956189,193.286299 C136.723744,193.751804 136.278845,193.987037 135.633661,193.987037 L111.439012,193.987037 C110.793828,193.987037 110.349053,193.751804 110.116484,193.286299 C109.807923,192.669432 109.933831,191.725645 110.409524,191.092276 C112.531082,188.266745 116.298504,185.556598 118.80685,185.050896 C119.942875,184.824595 120.807342,184.031054 121.061641,182.985779 C121.152533,182.624616 121.178857,181.87512 121.210148,180.744982 C121.214618,180.586919 121.143345,180.435558 121.018182,180.33804 C119.582412,179.216587 118.333144,177.430624 117.676784,175.560667 C117.605884,175.357567 117.416401,175.225807 117.206431,175.225807 C117.186812,175.225807 117.167318,175.226799 117.147326,175.229653 C117.039795,175.224938 116.633017,174.829657 116.472838,173.948276 C116.320482,173.019128 116.602223,172.512558 116.689638,172.495933 C116.92705,172.452012 117.0989,172.187623 117.098404,171.946558 C117.092195,169.479337 117.087228,167.348712 117.889114,165.846618 C118.425402,164.842409 119.590731,163.506318 123.571973,163.499494 C127.481943,163.506318 128.647272,164.842409 129.18356,165.846618 C129.985445,167.348712 129.980603,169.479337 129.97427,172.004126 C129.973773,172.245191 130.145624,172.452012 130.383036,172.495933 C130.470451,172.512558 130.752315,173.019128 130.600829,173.940459 C130.439657,174.829657 130.032878,175.224938 129.926837,175.229653 C129.696379,175.190695 129.473619,175.339081 129.396013,175.560667 C128.73953,177.430624 127.490386,179.216587 126.054491,180.33804 C125.929453,180.435558 125.859049,180.615207 125.863519,180.774262 C125.893816,181.87512 125.92014,182.624616 126.010039,182.981933 C126.265455,184.031054 127.129798,184.824595 128.265451,185.050895 C130.774169,185.556598 134.541592,188.266745 136.66315,191.092276 C137.138842,191.725645 137.264874,192.669432 136.956189,193.286299 Z" id="Shape-Copy-3" fill="#2A9BD7" opacity="0.686997768"></path>
                            <path d="M128.462135,21.5710044 C127.700232,21.4188967 127.146933,20.9239884 126.980919,20.241737 C126.917468,19.9890099 126.890151,19.1975783 126.869539,18.4655755 C128.310897,17.2737777 129.519065,15.5551839 130.234032,13.6792716 C130.858232,13.4802661 131.391539,12.6867254 131.586485,11.6103091 C131.76802,10.5064737 131.516081,9.57633385 130.975447,9.18886861 C130.979793,6.7918696 130.954463,4.53941001 130.066031,2.87528225 C129.021394,0.919469992 126.958444,0.00595530255 123.498837,0 C120.114229,0.00595530255 118.051279,0.919469992 117.006642,2.87528225 C116.124667,4.5276235 116.09288,6.76072841 116.097847,9.18886861 C115.556717,9.57633385 115.304653,10.5073421 115.487306,11.6180013 C115.681134,12.6877179 116.214566,13.4802661 116.838641,13.6792716 C117.553608,15.5551839 118.7619,17.2737777 120.203134,18.4655755 C120.183019,19.1819458 120.155701,19.9871488 120.090885,20.2457071 C119.92574,20.9239884 119.372441,21.4188967 118.610041,21.5710044 C115.848763,22.1273266 111.89521,24.9478947 109.609501,27.9930264 C108.8995,28.9376823 108.740315,30.2699274 109.221844,31.2331935 C109.625643,32.0413742 110.413373,32.4864071 111.439012,32.4864071 L135.633661,32.4864071 C136.6593,32.4864071 137.44703,32.0413742 137.850829,31.2331935 C138.332482,30.2699274 138.173173,28.9376823 137.463173,27.9930264 C135.177463,24.9478947 131.224035,22.1273266 128.462135,21.5710044 Z M136.956189,30.7862995 C136.723744,31.2518036 136.278845,31.4870371 135.633661,31.4870371 L111.439012,31.4870371 C110.793828,31.4870371 110.349053,31.2518036 110.116484,30.7862995 C109.807923,30.169432 109.933831,29.2256446 110.409524,28.5922761 C112.531082,25.7667453 116.298504,23.0565979 118.80685,22.5508956 C119.942875,22.3245951 120.807342,21.5310544 121.061641,20.4857792 C121.152533,20.1246164 121.178857,19.37512 121.210148,18.2449821 C121.214618,18.0869191 121.143345,17.9355577 121.018182,17.8380401 C119.582412,16.7165869 118.333144,14.9306242 117.676784,13.0606671 C117.605884,12.8575673 117.416401,12.7258068 117.206431,12.7258068 C117.186812,12.7258068 117.167318,12.7267994 117.147326,12.7296529 C117.039795,12.7249383 116.633017,12.3296568 116.472838,11.4482758 C116.320482,10.5191285 116.602223,10.0125577 116.689638,9.99593255 C116.92705,9.95201237 117.0989,9.68762291 117.098404,9.44655828 C117.092195,6.97933662 117.087228,4.84871213 117.889114,3.34661751 C118.425402,2.34240891 119.590731,1.00631766 123.571973,0.999493874 C127.481943,1.00631766 128.647272,2.34240891 129.18356,3.34661751 C129.985445,4.84871213 129.980603,6.97933662 129.97427,9.50412593 C129.973773,9.74519057 130.145624,9.95201237 130.383036,9.99593255 C130.470451,10.0125577 130.752315,10.5191285 130.600829,11.4404594 C130.439657,12.3296567 130.032878,12.7249382 129.926837,12.7296528 C129.696379,12.6906954 129.473619,12.839081 129.396013,13.060667 C128.73953,14.9306241 127.490386,16.7165868 126.054491,17.83804 C125.929453,17.9355577 125.859049,18.1152066 125.863519,18.2742621 C125.893816,19.3751199 125.92014,20.1246163 126.010039,20.4819329 C126.265455,21.5310543 127.129798,22.3245949 128.265451,22.5508954 C130.774169,23.0565977 134.541592,25.7667451 136.66315,28.5922759 C137.138842,29.2256447 137.264874,30.169432 136.956189,30.7862995 Z" id="Shape-Copy-4" fill="#2A9BD7" opacity="0.686997768"></path>
                            <path d="M60.9907146,59.164859 C60.5843663,59.0837349 60.2892736,58.8197837 60.2007326,58.4559163 C60.1668923,58.3211286 60.1523231,57.8990317 60.1413299,57.5086303 C60.9100542,56.8730047 61.5544104,55.9564214 61.9357263,54.9559348 C62.2686326,54.8497985 62.5530633,54.4265769 62.6570343,53.8524882 C62.7538533,53.2637759 62.6194855,52.7677013 62.3311477,52.5610532 C62.3334656,51.2826537 62.3199559,50.081342 61.8461256,49.1938072 C61.288986,48.1507073 60.188746,47.6634995 58.3436224,47.6603233 C56.5384978,47.6634995 55.4382579,48.1507073 54.8811182,49.1938072 C54.4107316,50.0750558 54.3937783,51.2660451 54.3964273,52.5610532 C54.1078246,52.7677013 53.9733905,53.2642391 54.0708055,53.8565907 C54.1741807,54.4271062 54.4586775,54.8497985 54.7915176,54.9559348 C55.1728335,55.9564214 55.8172559,56.8730047 56.585914,57.5086303 C56.5751857,57.8906944 56.5606165,58.320136 56.5260478,58.4580337 C56.4379703,58.8197837 56.1428777,59.0837349 55.7362644,59.164859 C54.2635826,59.4615641 52.1550212,60.9658672 50.9359761,62.5899374 C50.5573092,63.0937538 50.4724104,63.8042846 50.7292258,64.3180265 C50.9445852,64.7490562 51.3647081,64.9864071 51.9117155,64.9864071 L64.8155283,64.9864071 C65.3625358,64.9864071 65.7826587,64.7490562 65.998018,64.3180265 C66.2548996,63.8042846 66.1699346,63.0937538 65.7912678,62.5899374 C64.5722227,60.9658672 62.4637276,59.4615641 60.9907146,59.164859 Z M65.5208767,64.079683 C65.396906,64.3279519 65.1596266,64.4534097 64.8155284,64.4534097 L51.9117156,64.4534097 C51.5676174,64.4534097 51.3304043,64.3279519 51.2063673,64.079683 C51.0418016,63.750687 51.1089524,63.2473338 51.3626552,62.9095372 C52.4941527,61.4025874 54.5034447,59.9571755 55.8412289,59.6874676 C56.4471092,59.566774 56.9081583,59.1435523 57.0437844,58.5860722 C57.0922601,58.393452 57.1062995,57.9937206 57.1229879,57.3909804 C57.1253719,57.3066801 57.0873596,57.2259541 57.0206061,57.1739447 C56.2548619,56.5758363 55.5885857,55.6233228 55.2385274,54.6260124 C55.2007137,54.5176925 55.0996564,54.4474203 54.9876722,54.4474203 C54.9772089,54.4474203 54.9668118,54.4479496 54.9561497,54.4494715 C54.8988,54.4469571 54.6818513,54.2361403 54.5964228,53.7660704 C54.5151664,53.2705251 54.6654279,53.0003541 54.7120493,52.9914873 C54.838669,52.9680632 54.9303226,52.8270555 54.9300576,52.6984877 C54.9267465,51.3826362 54.9240975,50.2463031 55.3517699,49.445186 C55.63779,48.909608 56.259299,48.197026 58.3826283,48.1933867 C60.4679451,48.197026 61.0894542,48.909608 61.3754742,49.445186 C61.8031466,50.2463031 61.8005638,51.3826362 61.7971865,52.7291905 C61.7969216,52.8577583 61.8885751,52.9680632 62.0151948,52.9914873 C62.0618162,53.0003541 62.2121439,53.2705251 62.1313511,53.7619016 C62.0453927,54.2361402 61.828444,54.446957 61.771889,54.4494715 C61.6489779,54.4286942 61.5301727,54.5078332 61.4887828,54.6260124 C61.1386584,55.6233228 60.4724483,56.5758363 59.7066379,57.1739446 C59.6399507,57.2259541 59.6024018,57.3217668 59.6047859,57.4065964 C59.6209445,57.9937206 59.6349839,58.393452 59.6829299,58.5840208 C59.8191519,59.1435522 60.2801348,59.5667739 60.8858165,59.6874675 C62.2237993,59.9571754 64.2330914,61.4025873 65.3645889,62.9095371 C65.6182916,63.2473338 65.6855087,63.750687 65.5208767,64.079683 Z" id="Shape-Copy-5" fill="#2A9BD7" opacity="0.686997768"></path>
                            <path d="M245.629006,178.100217 C244.901757,177.955027 244.373623,177.482629 244.21516,176.831408 C244.154595,176.590176 244.12852,175.834741 244.108846,175.136032 C245.484647,173.99844 246.637864,172.358013 247.320312,170.567422 C247.916121,170.377468 248.425172,169.62002 248.611251,168.592562 C248.78453,167.538932 248.544049,166.651098 248.028006,166.281256 C248.032154,163.993279 248.007975,161.843268 247.159952,160.254829 C246.162828,158.387973 244.193707,157.516008 240.891453,157.510323 C237.660786,157.516008 235.691665,158.387973 234.694542,160.254829 C233.852681,161.832018 233.82234,163.963554 233.827081,166.281256 C233.310563,166.651098 233.069964,167.539761 233.244309,168.599905 C233.429322,169.620967 233.938491,170.377468 234.534182,170.567422 C235.21663,172.358013 236.369966,173.99844 237.745648,175.136032 C237.726448,175.819819 237.700373,176.588399 237.638504,176.835198 C237.48087,177.482629 236.952737,177.955027 236.225014,178.100217 C233.589326,178.631236 229.815592,181.323516 227.633843,184.230147 C226.956136,185.131837 226.804191,186.403488 227.263818,187.322942 C227.649251,188.094364 228.401153,188.519155 229.380143,188.519155 L252.47435,188.519155 C253.45334,188.519155 254.205243,188.094364 254.590675,187.322942 C255.050421,186.403488 254.898358,185.131837 254.22065,184.230147 C252.038901,181.323516 248.265286,178.631236 245.629006,178.100217 Z" id="Shape-Copy-8" fill="#FEFEFE"></path>
                            <path d="M311.420364,108.46455 C310.662221,108.313193 310.111653,107.820727 309.946458,107.141842 C309.88332,106.890362 309.856138,106.102837 309.835628,105.374446 C311.269872,104.18853 312.472078,102.478418 313.183517,100.611763 C313.804636,100.41374 314.335311,99.6241153 314.529295,98.5530112 C314.709935,97.4546233 314.459238,96.5290738 313.921273,96.1435207 C313.925597,93.7583511 313.900392,91.5170076 313.016345,89.8610925 C311.976863,87.9149323 309.924094,87.0059259 306.481561,87 C303.113655,87.0059259 301.060886,87.9149323 300.021405,89.8610925 C299.143783,91.5052793 299.112152,93.7273636 299.117094,96.1435207 C298.578635,96.5290738 298.327815,97.4554875 298.509567,98.5606654 C298.702439,99.6251029 299.233238,100.41374 299.854233,100.611763 C300.565672,102.478418 301.768001,104.18853 303.202122,105.374446 C303.182106,106.087281 303.154923,106.88851 303.090427,107.145793 C302.926097,107.820727 302.375528,108.313193 301.616891,108.46455 C298.86924,109.018126 294.935198,111.824775 292.660769,114.854878 C291.954272,115.794872 291.795873,117.120543 292.275025,118.079055 C292.676831,118.883247 293.460674,119.326084 294.481252,119.326084 L318.556498,119.326084 C319.577075,119.326084 320.360918,118.883247 320.762724,118.079055 C321.242,117.120543 321.083477,115.794872 320.37698,114.854878 C318.102551,111.824775 314.168633,109.018126 311.420364,108.46455 Z" id="Shape-Copy-15" fill="#FEFEFE"></path>
                            <path d="M209.632653,32.0197357 C208.866223,31.8667242 208.309636,31.3688749 208.142635,30.6825695 C208.078807,30.4283407 208.051328,29.6322062 208.030593,28.8958537 C209.480516,27.6969739 210.695863,25.9681679 211.415079,24.0811086 C212.042987,23.8809205 212.579464,23.0826645 212.775568,21.9998519 C212.958182,20.8894572 212.704746,19.9537903 212.1609,19.5640226 C212.165272,17.1527801 212.13979,14.886936 211.246079,13.2129196 C210.195235,11.2454855 208.120027,10.3265425 204.639862,10.3205518 C201.235142,10.3265425 199.159933,11.2454855 198.109089,13.2129196 C197.221873,14.8750794 197.189897,17.1214539 197.194893,19.5640226 C196.650547,19.9537903 196.396986,20.8903308 196.580724,22.0075897 C196.775705,23.0836628 197.312306,23.8809205 197.940089,24.0811086 C198.659305,25.9681679 199.874777,27.6969739 201.324575,28.8958537 C201.30434,29.6164808 201.276861,30.4264685 201.211659,30.6865632 C201.045532,31.3688749 200.488946,31.8667242 199.722016,32.0197357 C196.944329,32.5793637 192.967284,35.4166922 190.667992,38.4799187 C189.953773,39.4301879 189.793642,40.7703495 190.278032,41.7393395 C190.68423,42.5523226 191.476641,43 192.508375,43 L216.846794,43 C217.878527,43 218.670938,42.5523226 219.077137,41.7393395 C219.561652,40.7703495 219.401396,39.4301879 218.687176,38.4799187 C216.387885,35.4166922 212.410964,32.5793637 209.632653,32.0197357 Z" id="Shape-Copy-16" fill="#FEFEFE"></path>
                        </g>
                    </g>
                </g>
            </g>
        </g>
    </g>
</svg>