<?xml version="1.0" encoding="UTF-8"?>
<svg width="347px" height="217px" viewBox="0 0 347 217" version="1.1" xmlns="http://www.w3.org/2000/svg" xmlns:xlink="http://www.w3.org/1999/xlink">
    <!-- Generator: sketchtool 51.3 (57544) - http://www.bohemiancoding.com/sketch -->
    <title>7837EDE2-14BA-4D26-91DF-BBCFF811A54C</title>
    <desc>Created with sketchtool.</desc>
    <defs>
        <linearGradient x1="16.5434697%" y1="12.8427587%" x2="83.4565303%" y2="87.1572413%" id="linearGradient-1">
            <stop stop-color="#0C4DD1" offset="0%"></stop>
            <stop stop-color="#141583" offset="100%"></stop>
        </linearGradient>
        <linearGradient x1="6.85450342%" y1="0%" x2="74.2939033%" y2="100%" id="linearGradient-2">
            <stop stop-color="#48D9FF" offset="0%"></stop>
            <stop stop-color="#4677FF" offset="100%"></stop>
        </linearGradient>
        <filter x="-5.2%" y="-4.6%" width="110.4%" height="113.0%" filterUnits="objectBoundingBox" id="filter-3">
            <feOffset dx="0" dy="2" in="SourceAlpha" result="shadowOffsetOuter1"></feOffset>
            <feGaussianBlur stdDeviation="2" in="shadowOffsetOuter1" result="shadowBlurOuter1"></feGaussianBlur>
            <feColorMatrix values="0 0 0 0 0   0 0 0 0 0   0 0 0 0 0  0 0 0 0.241394928 0" type="matrix" in="shadowBlurOuter1" result="shadowMatrixOuter1"></feColorMatrix>
            <feMerge>
                <feMergeNode in="shadowMatrixOuter1"></feMergeNode>
                <feMergeNode in="SourceGraphic"></feMergeNode>
            </feMerge>
        </filter>
        <radialGradient cx="-25.9988385%" cy="-20.4008942%" fx="-25.9988385%" fy="-20.4008942%" r="52.2693088%" gradientTransform="translate(-0.259988,-0.204009),scale(1.000000,0.978876),rotate(37.284682),translate(0.259988,0.204009)" id="radialGradient-4">
            <stop stop-color="#489DFF" offset="0%"></stop>
            <stop stop-color="#B846FF" offset="100%"></stop>
        </radialGradient>
        <path d="M123.226131,76.5385416 L123.226131,103.690758 C123.226131,106.064831 121.349276,108 119.022758,108 L92.4144284,108 C90.0879102,108 88.2110553,106.064831 88.2110553,103.690758 L88.2110553,76.5385416 C88.2110553,74.1644683 90.0879102,72.2292994 92.4144284,72.2292994 L119.022758,72.2292994 C121.349276,72.2292994 123.226131,74.1644683 123.226131,76.5385416 Z" id="path-5"></path>
    </defs>
    <g id="Page-1" stroke="none" stroke-width="1" fill="none" fill-rule="evenodd">
        <g id="all_cpop_size" transform="translate(-806.000000, -2030.000000)">
            <g id="img_block_3_usage" transform="translate(806.000000, 2024.000000)">
                <path d="M148.091606,69.5400331 L203.168772,20.0234206 C225.609959,-0.152119457 260.182445,1.65700428 280.388581,24.0642116 L332.955313,82.3570821 C353.161449,104.764289 351.349582,139.284427 328.908394,159.459967 L273.831228,208.976579 C251.390041,229.152119 216.817555,227.342996 196.611419,204.935788 L144.044687,146.642918 C123.838551,124.235711 125.650418,89.7155732 148.091606,69.5400331 Z" id="Rectangle-Copy-4" fill="url(#linearGradient-1)"></path>
                <g id="noun_Laptop_1801624" transform="translate(56.000000, 0.000000)">
                    <g id="Group">
                        <polygon id="Path-5" fill="url(#linearGradient-2)" points="14.038072 167.095782 14.038072 48.4557892 202.668454 48.4557892 209.115956 167.095782"></polygon>
                        <rect id="Rectangle-path" fill="#1B73DA" fill-rule="nonzero" x="0" y="174.2679" width="222" height="13.9378" rx="3.07"></rect>
                        <path d="M201.0654,38.7943 L20.9346,38.7943 C15.3069289,38.7943 10.7448,43.4591795 10.7448,49.2136 L10.7448,169.8187 L211.2552,169.8187 L211.2552,49.2136 C211.2552,43.4591795 206.693071,38.7943 201.0654,38.7943 Z M111,43.811 C112.226072,43.811 113.22,44.8273136 113.22,46.081 C113.22,47.3346864 112.226072,48.351 111,48.351 C109.773928,48.351 108.78,47.3346864 108.78,46.081 C108.78,44.8273136 109.773928,43.811 111,43.811 Z M201.7448,160.7943 L19.7448,160.7943 L19.7448,53.2088 L201.7448,53.2088 L201.7448,160.7943 Z" id="Shape" fill="#1B73DA" fill-rule="nonzero"></path>
                        <rect id="Rectangle-path" x="0" y="0" width="222" height="227"></rect>
                    </g>
                </g>
                <g id="noun_Apps_98676" filter="url(#filter-3)" transform="translate(152.000000, 46.000000)" fill-rule="nonzero">
                    <path d="M35.0150754,49.0228584 L35.0150754,76.176589 C35.0150754,78.5487995 33.1392678,80.4840764 30.8140479,80.4840764 L4.22056712,80.4840764 C1.89534727,80.4840764 0,78.5487995 0,76.176589 L0,49.0228584 C0,46.6486527 1.89534727,44.7133758 4.22056712,44.7133758 L30.8140479,44.7133758 C33.1392678,44.7133758 35.0150754,46.6486527 35.0150754,49.0228584 Z" id="Shape" fill="#FFFFFF"></path>
                    <path d="M134,5.70385817 L134,41.740955 C134,44.9052862 131.491351,47.4649682 128.414259,47.4649682 L110.038553,47.4649682 L110.038553,31.3611424 C110.038553,24.9317051 104.906777,19.6914114 98.6104823,19.6914114 L87.5376884,19.6914114 L87.5376884,5.70385817 C87.5376884,2.55968193 90.0443637,0 93.1234294,0 L128.414259,0 C131.493325,3.58024292e-15 134,2.55968193 134,5.70385817 Z" id="Shape" fill="#FFFFFF"></path>
                    <path d="M105.718593,30.9957759 L105.718593,68.1287461 L92.3383903,68.1287461 C87.839027,68.1287461 84.1845224,71.8821868 84.1845224,76.4786464 L84.1845224,86.6751592 L51.2153887,86.6751592 C47.089335,86.6751592 43.7688442,83.2830122 43.7688442,79.0679183 L43.7688442,30.9957759 C43.7688442,26.8007539 47.089335,23.388535 51.2153887,23.388535 L98.2720485,23.388535 C102.378454,23.388535 105.718593,26.8007539 105.718593,30.9957759 Z" id="Shape" fill="#FFFFFF"></path>
                    <g id="Shape">
                        <use fill="url(#radialGradient-4)" xlink:href="#path-5"></use>
                        <use fill="#FFFFFF" xlink:href="#path-5"></use>
                    </g>
                </g>
                <rect id="Rectangle-4" stroke="#5F8ED7" stroke-width="2" opacity="0.317912946" x="22" y="109" width="35" height="37" rx="5"></rect>
                <rect id="Rectangle-4-Copy-2" stroke="#5F8ED7" stroke-width="2" opacity="0.317912946" x="93" y="82" width="20" height="21" rx="5"></rect>
                <rect id="Rectangle-4-Copy-3" stroke="#5F8ED7" stroke-width="2" opacity="0.317912946" x="78" y="15" width="18" height="19" rx="5"></rect>
                <rect id="Rectangle-4-Copy-4" stroke="#5F8ED7" stroke-width="2" opacity="0.317912946" x="45" y="56" width="10" height="11" rx="5"></rect>
                <rect id="Rectangle-4-Copy" stroke="#5F8ED7" stroke-width="2" opacity="0.317912946" x="1" y="69" width="20" height="20" rx="5"></rect>
            </g>
        </g>
    </g>
</svg>