<?xml version="1.0" encoding="UTF-8"?>
<svg width="25px" height="24px" viewBox="0 0 25 24" version="1.1" xmlns="http://www.w3.org/2000/svg" xmlns:xlink="http://www.w3.org/1999/xlink">
    <!-- Generator: sketchtool 51.3 (57544) - http://www.bohemiancoding.com/sketch -->
    <title>3D862F23-BE06-4DD5-904B-C8E13CEE403D</title>
    <desc>Created with sketchtool.</desc>
    <defs></defs>
    <g id="Page-1" stroke="none" stroke-width="1" fill="none" fill-rule="evenodd">
        <g id="all_cpop_size" transform="translate(-165.000000, -17.000000)" fill="#FFFFFF">
            <g id="Block_1" transform="translate(-427.000000, -1067.000000)">
                <g id="header" transform="translate(427.000000, 1067.000000)">
                    <path d="M176.15088,23.6956094 C174.524829,23.9122053 173.469424,24.3110983 172.984666,24.8922884 C172.52553,25.442759 172.181696,26.3655795 171.953164,27.6607497 C172.103752,28.0414703 172.186199,28.4544231 172.186199,28.8858696 C172.186199,30.7916586 170.577514,32.3366059 168.5931,32.3366059 C166.608686,32.3366059 165,30.7916586 165,28.8858696 C165,26.9800805 166.608686,25.4351332 168.5931,25.4351332 C168.979016,25.4351332 169.350723,25.4935632 169.69915,25.601714 C171.003846,25.3586964 171.900922,24.9892751 172.390379,24.4934502 C172.972209,23.9040505 173.443936,22.6857259 173.805563,20.8384764 C173.790743,20.7111937 173.783133,20.5818185 173.783133,20.4507363 C173.783133,18.5449473 175.391818,17 177.376232,17 C179.360646,17 180.969332,18.5449473 180.969332,20.4507363 C180.969332,22.3565254 179.360646,23.9014727 177.376232,23.9014727 C176.945923,23.9014727 176.533282,23.828827 176.15088,23.6956094 Z M184.934012,32.1307426 C183.307962,32.3473385 182.252557,32.7462315 181.767798,33.3274216 C181.308662,33.8778923 180.964828,34.8007127 180.736296,36.095883 C180.886885,36.4766035 180.969332,36.8895564 180.969332,37.3210028 C180.969332,39.2267919 179.360646,40.7717391 177.376232,40.7717391 C175.391818,40.7717391 173.783133,39.2267919 173.783133,37.3210028 C173.783133,35.4152138 175.391818,33.8702665 177.376232,33.8702665 C177.762149,33.8702665 178.133855,33.9286964 178.482283,34.0368473 C179.786979,33.7938296 180.684055,33.4244083 181.173512,32.9285834 C181.755341,32.3391838 182.227069,31.1208592 182.588695,29.2736097 C182.573875,29.1463269 182.566265,29.0169518 182.566265,28.8858696 C182.566265,26.9800805 184.174951,25.4351332 186.159365,25.4351332 C188.143779,25.4351332 189.752464,26.9800805 189.752464,28.8858696 C189.752464,30.7916586 188.143779,32.3366059 186.159365,32.3366059 C185.729056,32.3366059 185.316415,32.2639603 184.934012,32.1307426 Z M176.15088,32.1307426 C174.524829,32.3473385 173.469424,32.7462315 172.984666,33.3274216 C172.52553,33.8778923 172.181696,34.8007127 171.953164,36.095883 C172.103752,36.4766035 172.186199,36.8895564 172.186199,37.3210028 C172.186199,39.2267919 170.577514,40.7717391 168.5931,40.7717391 C166.608686,40.7717391 165,39.2267919 165,37.3210028 C165,35.4152138 166.608686,33.8702665 168.5931,33.8702665 C168.979016,33.8702665 169.350723,33.9286964 169.69915,34.0368473 C171.003846,33.7938296 171.900922,33.4244083 172.390379,32.9285834 C172.972209,32.3391838 173.443936,31.1208592 173.805563,29.2736097 C173.790743,29.1463269 173.783133,29.0169518 173.783133,28.8858696 C173.783133,26.9800805 175.391818,25.4351332 177.376232,25.4351332 C179.360646,25.4351332 180.969332,26.9800805 180.969332,28.8858696 C180.969332,30.7916586 179.360646,32.3366059 177.376232,32.3366059 C176.945923,32.3366059 176.533282,32.2639603 176.15088,32.1307426 Z M168.5931,23.9014727 C166.608686,23.9014727 165,22.3565254 165,20.4507363 C165,18.5449473 166.608686,17 168.5931,17 C170.577514,17 172.186199,18.5449473 172.186199,20.4507363 C172.186199,22.3565254 170.577514,23.9014727 168.5931,23.9014727 Z M186.159365,23.9014727 C184.174951,23.9014727 182.566265,22.3565254 182.566265,20.4507363 C182.566265,18.5449473 184.174951,17 186.159365,17 C188.143779,17 189.752464,18.5449473 189.752464,20.4507363 C189.752464,22.3565254 188.143779,23.9014727 186.159365,23.9014727 Z M186.159365,40.7717391 C184.174951,40.7717391 182.566265,39.2267919 182.566265,37.3210028 C182.566265,35.4152138 184.174951,33.8702665 186.159365,33.8702665 C188.143779,33.8702665 189.752464,35.4152138 189.752464,37.3210028 C189.752464,39.2267919 188.143779,40.7717391 186.159365,40.7717391 Z" id="logo_header"></path>
                </g>
            </g>
        </g>
    </g>
</svg>