<svg xmlns="http://www.w3.org/2000/svg" width="24" height="26" viewBox="0 0 24 26">
    <g fill="none" fill-rule="nonzero" stroke="#FFF" stroke-width="2">
        <path d="M12.153 12.557c2.426-.042 4.59-1.42 5.483-3.492.893-2.072.337-4.428-1.406-5.97-1.744-1.543-4.333-1.968-6.56-1.077-2.227.892-3.652 2.923-3.612 5.148.058 3.034 2.784 5.446 6.095 5.391zM4.118 24.7l15.489-.271c1.52-.027 2.736-1.044 2.715-2.273l-.01-.508c-.225-4.596-4.946-8.182-10.642-8.082-5.695.099-10.288 3.847-10.354 8.448l.009.509c.01.59.31 1.15.834 1.559.524.408 1.228.63 1.959.617z"/>
    </g>
</svg>
