<svg xmlns="http://www.w3.org/2000/svg" xmlns:xlink="http://www.w3.org/1999/xlink" width="2065" height="1119" viewBox="0 0 2065 1119"><defs><path id="iodxa" d="M-8 798.03c631.382 96.083 1275.959 122.79 1932.473.845.075 410.216.07 821.648 4.527.003-82.773 170.255-164.241 302.006-244.374 426.166-80.163 122.37-158.95 235.927-236.978 326.438-78.061 90.818-155.276 155.926-233.158 191.678-38.935 18.317-78.066 30.2-117.544 37.853-19.738 3.818-39.564 6.573-59.49 8.42a655.839 655.839 0 0 1-60.093 2.783c-5.028.105-10.064.147-15.108.129a630.292 630.292 0 0 1-15.154-.239 642.713 642.713 0 0 1-30.44-1.57c-20.35-1.537-40.811-4.044-61.358-7.678-41.094-7.276-82.533-19.08-124.107-37.36-83.17-35.904-166.773-100.954-249.694-193.251-82.877-91.38-164.987-205.875-245.817-328.94C154.835 1098.58 75.225 966.474-3.08 799.624c-2.426 409.997-3.662 512.315-4.29 460.837-.315-25.751-.476-89.982-.557-173.463-.04-41.741-.06-88.294-.07-137.257-.004-24.481-.006-49.564-.006-74.95L-8 798.03z"/><mask id="iodxc" width="2.01" height="2.01" x="-1" y="-1.01"><path fill="#fff" d="M-15 791h1951v1009H-15z"/><use xlink:href="#iodxa"/></mask><filter id="iodxb" width="2131" height="1190" x="-105" y="701" filterUnits="userSpaceOnUse"><feOffset dy="1" in="SourceGraphic" result="FeOffset1048Out"/><feGaussianBlur in="FeOffset1048Out" result="FeGaussianBlur1049Out" stdDeviation="32 32"/></filter></defs><g><g transform="translate(72 -739)"><g filter="url(#iodxb)"><use fill="none" stroke="#000" stroke-opacity=".07" stroke-width="14" mask="url(&quot;#iodxc&quot;)" xlink:href="#iodxa"/><use fill-opacity=".07" xlink:href="#iodxa"/></g><use fill="#fff" xlink:href="#iodxa"/></g></g></svg>