<svg xmlns="http://www.w3.org/2000/svg" xmlns:xlink="http://www.w3.org/1999/xlink" width="1076" height="740" viewBox="0 0 1076 740"><defs><path id="8yrua" d="M-237 836.999c309.335 59.622 625.134 76.195 946.782.524.037 254.551.034 509.857 2.218.002-40.553 105.648-80.467 187.404-119.727 264.449-39.274 75.935-77.875 146.4-116.103 202.564-38.245 56.355-76.075 96.757-114.232 118.942-19.075 11.366-38.247 18.74-57.588 23.489-9.671 2.369-19.384 4.079-29.147 5.225a254.989 254.989 0 0 1-29.441 1.727 239.143 239.143 0 0 1-14.827-.069 249.446 249.446 0 0 1-14.914-.973 243.322 243.322 0 0 1-30.06-4.765c-20.134-4.515-40.436-11.84-60.805-23.183-40.747-22.28-81.707-62.645-122.333-119.918-40.604-56.704-80.832-127.752-120.434-204.117-39.611-77.397-78.615-159.372-116.978-262.907-1.189 254.415-1.795 317.907-2.103 285.963-.154-15.98-.233-55.836-.272-107.64-.02-25.9-.03-54.788-.034-85.171a326326.278 326326.278 0 0 1-.002-94.142z"/><mask id="8yruc" width="2.01" height="2.02" x="-1.01" y="-1.01"><path fill="#fff" d="M-244 830h963v631h-963z"/><use xlink:href="#8yrua"/></mask><filter id="8yrub" width="1143.5" height="811.9" x="-334" y="740" filterUnits="userSpaceOnUse"><feOffset dx=".5" dy=".9" in="SourceGraphic" result="FeOffset1023Out"/><feGaussianBlur in="FeOffset1023Out" result="FeGaussianBlur1024Out" stdDeviation="32 32"/></filter></defs><g><g transform="translate(300 -779)"><g filter="url(#8yrub)"><use fill="none" stroke="#000" stroke-opacity=".07" stroke-width="14" mask="url(&quot;#8yruc&quot;)" xlink:href="#8yrua"/><use fill-opacity=".07" xlink:href="#8yrua"/></g><use fill="#fff" xlink:href="#8yrua"/></g></g></svg>