<svg xmlns="http://www.w3.org/2000/svg" xmlns:xlink="http://www.w3.org/1999/xlink" width="913" height="913" viewBox="0 0 913 913"><defs><path id="inaea" d="M960.5 480c225.056 0 407.5 182.465 407.5 407.547 0 225.082-182.444 407.547-407.5 407.547S553 1112.629 553 887.547C553 662.465 735.444 480 960.5 480z"/><path id="inaed" d="M528.5 1383.5v-991h864v991zM553 950.547c0 225.082 182.444 407.547 407.5 407.547S1368 1175.629 1368 950.547C1368 725.465 1185.556 543 960.5 543S553 725.465 553 950.547z"/><mask id="inaec" width="2.01" height="2.01" x="-1.01" y="-1.01"><path fill="#fff" d="M547.9 474.9h825.2v826.2H547.9z"/><use xlink:href="#inaea"/></mask><filter id="inaeb" width="949" height="965" x="486" y="413" filterUnits="userSpaceOnUse"><feOffset dy="15" in="SourceGraphic" result="FeOffset1023Out"/><feGaussianBlur in="FeOffset1023Out" result="FeGaussianBlur1024Out" stdDeviation="20.759999999999998 20.759999999999998"/></filter><filter id="inaee" width="200%" height="200%" x="-50%" y="-50%"><feGaussianBlur in="SourceGraphic" result="FeGaussianBlur1029Out" stdDeviation="12.25 12.25"/></filter><mask id="inaef"><use fill="#fff" xlink:href="#inaea"/></mask></defs><g><g transform="translate(-504 -446)"><g filter="url(#inaeb)"><use fill="none" stroke="#000" stroke-opacity=".33" stroke-width="10.2" mask="url(&quot;#inaec&quot;)" xlink:href="#inaea"/><use fill-opacity=".33" xlink:href="#inaea"/></g><use fill="#2b2b26" xlink:href="#inaea"/><use fill-opacity=".2" stroke="#000" stroke-opacity=".2" stroke-width="21" filter="url(#inaee)" mask="url(&quot;#inaef&quot;)" xlink:href="#inaed"/></g></g></svg>