<svg xmlns="http://www.w3.org/2000/svg" xmlns:xlink="http://www.w3.org/1999/xlink" width="120" height="79" viewBox="0 0 120 79"><defs><path id="z7txa" d="M499.617 5804.223s13.933 18.478 30.474 12.993c0 0 2.433.613.268 3.249 0 0-5.627 9.37 11.762 20.032 0 0-4.755-.037-11.762 9.745 0 0 .437-4.885 4.544-10.016 0 0-.098-2.419-2.94-.541l-3.475 2.977s-11.87 4.69-29.673-12.18c0 0 7.334 6.505 21.653 5.142 0 0 3.16-1.05-1.871-1.624 0 0-22.816-3.094-28.603-24.363 0 0 8.784 12.082 24.058 14.077 0 0 5.966.076.268-1.625 0 0-10.376-1.178-14.703-17.866z"/><path id="z7txb" d="M561.903 5849.7s-8.093-10.071-16.04-11.369c0 0-7.51-1.637-10.158-10.557 0 0-1.892-5.294 2.94-9.474 0 0 3.884-4.69 13.634-.813 0 0-3.588-7.826-15.237-4.33 0 0 1.893-3.303 7.218-2.437 0 0 .238-1.966-3.208-3.79 0 0 5.31-.01 6.95 4.06 0 0 1.708.597.802-1.082-.906-1.68-.802-1.625-.802-1.625l-.802-2.165s9.57 4.028 10.426 17.325c0 0-1.71-3.114-5.08-1.624 0 0-3.558.277-2.94 5.684 0 0 1.091 6.167 8.822 3.52 0 0 6.71-2.077 3.207-11.64 0 0-1.141-3.428 2.941-2.167 0 0 3.72 1.048 9.356 0 0 0 14.437-4.45 18.713-12.993 0 0-1.139 13.595-15.238 18.137 0 0-3.172.908 0 2.166 0 0 15.078-1.993 24.594-14.889 0 0-4.578 13.741-13.901 18.949 0 0-5.32 4.806-16.306 5.685 0 0-2.613 1.722 1.604 1.624 0 0 10.341.911 19.781-5.956 0 0-.55 4.15-11.227 9.746 0 0-9.339 5.072-18.178 2.977 0 0-3.495-1.998-4.277-3.52 0 0-2.007-.285-1.337 1.896 0 0 1.998 3.715 3.743 8.662z"/><path id="z7txc" d="M529.557 5867.566s.349-19.382 17.108-24.904c0 0 15.596 4.394 17.109 24.904 0 0-2.9-9.16-6.95-10.286 0 0-5.194-2.857-5.08 1.895 0 0 .45 4.115 6.95 7.58 0 0-2.045 6.23-12.296 9.474 0 0-6.878-1.452-11.762-9.745 0 0 5.552-2.915 6.683-7.038 0 0 1.892-5.773-5.614-1.895 0 0-3.682 2.335-6.148 10.015z"/><clipPath id="z7txd"><use fill="#fff" xlink:href="#z7txa"/></clipPath><clipPath id="z7txe"><use fill="#fff" xlink:href="#z7txb"/></clipPath><clipPath id="z7txf"><use fill="#fff" xlink:href="#z7txc"/></clipPath></defs><g><g transform="translate(-486 -5804)"><g><use fill="#f39426" xlink:href="#z7txa"/><use fill="#fff" fill-opacity="0" stroke="#fff6e3" stroke-miterlimit="50" stroke-width="6" clip-path="url(&quot;#z7txd&quot;)" xlink:href="#z7txa"/></g><g><use fill="#f39426" xlink:href="#z7txb"/><use fill="#fff" fill-opacity="0" stroke="#f0eee9" stroke-miterlimit="50" stroke-width="6" clip-path="url(&quot;#z7txe&quot;)" xlink:href="#z7txb"/></g><g><use fill="#f39426" xlink:href="#z7txc"/><use fill="#fff" fill-opacity="0" stroke="#f0eee9" stroke-miterlimit="50" stroke-width="6" clip-path="url(&quot;#z7txf&quot;)" xlink:href="#z7txc"/></g></g></g></svg>