<svg xmlns="http://www.w3.org/2000/svg" xmlns:xlink="http://www.w3.org/1999/xlink" viewBox="0 0 44.3 44"><style>.st0{fill:#f7931e}</style><path class="st0" d="M44.3 20.3h-4.1c-.6-4.1-2.2-7.6-5.2-10.5-2.9-2.9-6.4-4.6-10.5-5.1V.6h.3l2.1.3c6 1.3 10.7 4.6 14 9.8 1.6 2.5 2.6 5.3 3.1 8.3.1.4.1.8.2 1.2.1 0 .1.1.1.1zM24.5 44v-4.1c4.1-.5 7.6-2.2 10.5-5.1 2.9-2.9 4.6-6.4 5.1-10.5h4.1v.4c-.1.8-.2 1.7-.4 2.5-1.1 4.8-3.6 8.8-7.4 12-3 2.5-6.4 4-10.2 4.6-.5.1-.9.1-1.4.2h-.3zM.8 24.3h4.1c.5 4.1 2.2 7.6 5.1 10.5 2.9 2.9 6.4 4.6 10.5 5.1V44h-.3c-1-.2-2-.3-2.9-.5-4.8-1.2-8.7-3.8-11.8-7.6C3.2 33 1.7 29.7 1.1 26c-.1-.5-.1-.9-.2-1.4-.1-.2-.1-.2-.1-.3zM20.5.6v4.1c-4.1.5-7.6 2.2-10.5 5.1-2.9 2.9-4.6 6.4-5.1 10.5H.8v-.4c.2-1 .3-1.9.6-2.9C3 10.9 6.5 6.3 12.1 3.2c2.2-1.3 4.6-2 7.2-2.4.4-.1.8-.1 1.1-.2h.1zm-8.8 21.7c0-6 4.8-10.8 10.8-10.8 6 0 10.8 4.8 10.8 10.8 0 6-4.8 10.8-10.8 10.8-5.9 0-10.8-4.9-10.8-10.8z" id="Слой_2"/><g id="Слой_3"><path class="st0" d="M-3.8 107h104v105h-104z"/><image width="57" height="57" xlink:href="4DEFDF22.png" transform="translate(25.25 131.02)" overflow="visible" opacity=".67"/><path d="M76.3 157.8h-4.2c-.5-4.2-2.2-7.8-5.2-10.8-3-3-6.6-4.7-10.8-5.2v-4.2h.4c.7.1 1.5.2 2.2.3 6.1 1.4 10.9 4.7 14.3 10 1.7 2.6 2.7 5.4 3.1 8.5.1.4.1.8.2 1.2v.2zM56.1 182v-4.2c4.2-.5 7.8-2.2 10.8-5.2 3-3 4.7-6.6 5.2-10.8h4.2v.4c-.1.9-.2 1.7-.4 2.6-1.2 4.9-3.7 9-7.6 12.3-3 2.5-6.5 4.1-10.4 4.7-.5.1-1 .1-1.5.2h-.3zm-24.3-20.2H36c.5 4.2 2.2 7.8 5.2 10.8 3 3 6.6 4.7 10.8 5.2v4.2h-.4c-1-.2-2-.3-3-.5-4.9-1.2-8.9-3.8-12.1-7.8-2.4-3-3.9-6.4-4.5-10.1-.1-.5-.1-1-.2-1.5v-.3zM52 137.6v4.2c-4.2.5-7.8 2.2-10.8 5.2-3 3-4.7 6.6-5.2 10.8h-4.2v-.4c.2-1 .3-2 .5-3 1.6-6.3 5.3-11 10.9-14.2 2.3-1.3 4.7-2.1 7.3-2.5.4-.1.8-.1 1.2-.2.2.1.2.1.3.1zm-9 22.2c0-6.1 4.9-11 11-11s11 4.9 11 11-4.9 11-11.1 11c-6 0-10.9-4.9-10.9-11z" fill="#fff"/></g></svg>