<svg xmlns="http://www.w3.org/2000/svg" xmlns:xlink="http://www.w3.org/1999/xlink" viewBox="0 0 50 50"><style>.st0{fill:#f7931e}</style><path class="st0" d="M164 160.7h-4.2c-.5-4.2-2.2-7.8-5.2-10.8-3-3-6.6-4.7-10.8-5.2v-4.2h.4c.7.1 1.5.2 2.2.3 6.1 1.4 10.9 4.7 14.3 10 1.7 2.6 2.7 5.4 3.1 8.5.1.4.1.8.2 1.2v.2zM143.8 185v-4.2c4.2-.5 7.8-2.2 10.8-5.2 3-3 4.7-6.6 5.2-10.8h4.2v.4c-.1.9-.2 1.7-.4 2.6-1.2 4.9-3.7 9-7.6 12.3-3 2.5-6.5 4.1-10.4 4.7-.5.1-1 .1-1.5.2h-.3zm-24.3-20.2h4.2c.5 4.2 2.2 7.8 5.2 10.8 3 3 6.6 4.7 10.8 5.2v4.2h-.4c-1-.2-2-.3-3-.5-4.9-1.2-8.9-3.8-12.1-7.8-2.4-3-3.9-6.4-4.5-10.1-.1-.5-.1-1-.2-1.5v-.3zm20.2-24.3v4.2c-4.2.5-7.8 2.2-10.8 5.2-3 3-4.7 6.6-5.2 10.8h-4.2v-.4c.2-1 .3-2 .5-3 1.6-6.3 5.3-11 10.9-14.2 2.3-1.3 4.7-2.1 7.3-2.5.4-.1.8-.1 1.2-.2.2.1.3.1.3.1zm-9 22.3c0-6.1 4.9-11 11-11s11 4.9 11 11-4.9 11-11.1 11c-5.9 0-10.9-5-10.9-11z" id="Слой_2"/><g id="Слой_3"><path class="st0" d="M-1 110h104v105H-1z"/><image width="57" height="57" xlink:href="FD3F547B.png" transform="translate(-4 -3)" overflow="visible" opacity=".67"/><path d="M47 23.7h-4.2c-.5-4.2-2.2-7.8-5.2-10.8-3-3-6.6-4.7-10.8-5.2V3.5h.4c.7.1 1.5.2 2.2.3 6.1 1.4 10.9 4.7 14.3 10 1.7 2.6 2.7 5.4 3.1 8.5.1.4.1.8.2 1.2v.2zM26.8 48v-4.2c4.2-.5 7.8-2.2 10.8-5.2 3-3 4.7-6.6 5.2-10.8H47v.4c-.1.9-.2 1.7-.4 2.6-1.2 4.9-3.7 9-7.6 12.3-3 2.5-6.5 4.1-10.4 4.7-.5.1-1 .1-1.5.2h-.3zM2.5 27.8h4.2c.6 4.2 2.3 7.8 5.2 10.8 3 3 6.6 4.7 10.8 5.2V48h-.4c-1-.2-2-.3-3-.5-4.9-1.2-8.9-3.8-12.1-7.8-2.4-3-3.9-6.4-4.5-10.1-.1-.5-.1-1-.2-1.5v-.3zM22.7 3.5v4.2c-4.2.6-7.8 2.3-10.7 5.2-3 3-4.7 6.6-5.2 10.8H2.6v-.4c.2-1 .3-2 .5-3C4.7 14 8.4 9.3 14 6.1c2.3-1.3 4.7-2.1 7.3-2.5.4-.1.8-.1 1.2-.2.1.1.2.1.2.1zm-9 22.3c0-6.1 4.9-11 11-11s11 4.9 11 11-4.9 11-11.1 11c-5.9 0-10.9-5-10.9-11z" fill="#fff"/></g></svg>