<svg xmlns="http://www.w3.org/2000/svg" xmlns:xlink="http://www.w3.org/1999/xlink" width="231" height="150"><defs><path id="a" d="M863.496 1592s27.672 36.404 60.528 25.598c0 0 4.83 1.207.53 6.4 0 0-11.176 18.46 23.362 39.464 0 0-9.445-.071-23.361 19.2 0 0 .868-9.625 9.026-19.733 0 0-.196-4.765-5.84-1.067l-6.903 5.867s-23.576 9.24-58.935-23.999c0 0 14.567 12.818 43.007 10.133 0 0 6.276-2.07-3.717-3.2 0 0-45.317-6.096-56.811-47.997 0 0 17.447 23.802 47.785 27.731 0 0 11.85.15.53-3.2 0 0-20.608-2.32-29.201-35.197zm123.71 89.595s-16.074-19.842-31.857-22.399c0 0-14.916-3.226-20.175-20.799 0 0-3.758-10.43 5.84-18.666 0 0 7.713-9.238 27.078-1.6 0 0-7.127-15.42-30.264-8.532 0 0 3.76-6.507 14.336-4.8 0 0 .474-3.873-6.372-7.467 0 0 10.547-.02 13.805 8 0 0 3.392 1.176 1.593-2.133-1.8-3.31-1.593-3.2-1.593-3.2l-1.593-4.266s19.007 7.936 20.707 34.131c0 0-3.396-6.135-10.088-3.2 0 0-7.068.547-5.84 11.2 0 0 2.167 12.15 17.52 6.933 0 0 13.329-4.091 6.372-22.933 0 0-2.268-6.751 5.84-4.266 0 0 7.39 2.063 18.584 0 0 0 28.673-8.77 37.166-25.598 0 0-2.26 26.783-30.264 35.731 0 0-6.3 1.79 0 4.266 0 0 29.947-3.925 48.847-29.331 0 0-9.091 27.07-27.61 37.33 0 0-10.567 9.47-32.387 11.2 0 0-5.188 3.394 3.186 3.2 0 0 20.54 1.795 39.29-11.733 0 0-1.094 8.174-22.3 19.2 0 0-18.547 9.991-36.104 5.866 0 0-6.941-3.938-8.495-6.933 0 0-3.987-.564-2.655 3.733 0 0 3.968 7.317 7.433 17.066zm-64.244 35.198s.693-38.187 33.98-49.064c0 0 30.975 8.657 33.98 49.064 0 0-5.757-18.048-13.804-20.266 0 0-10.315-5.629-10.088 3.733 0 0 .893 8.108 13.805 14.933 0 0-4.063 12.277-24.424 18.666 0 0-13.661-2.86-23.361-19.2 0 0 11.027-5.741 13.273-13.865 0 0 3.758-11.373-11.15-3.733 0 0-7.312 4.602-12.211 19.732z"/><mask id="c" width="2" height="2" x="-1" y="-1"><path fill="#fff" d="M844 1592h223v142H844z"/><use xlink:href="#a"/></mask><filter id="b" width="257" height="176" x="827" y="1575" filterUnits="userSpaceOnUse"><feOffset in="SourceGraphic" result="FeOffset1023Out"/><feGaussianBlur in="FeOffset1023Out" result="FeGaussianBlur1024Out" stdDeviation="2.8 2.8"/></filter></defs><g transform="translate(-840 -1589)"><g filter="url(#b)"><use fill="none" stroke-opacity=".45" stroke-width="0" mask="url(&quot;#c&quot;)" xlink:href="#a"/><use fill="#fff" fill-opacity=".45" xlink:href="#a"/></g><g filter="url(#b)"><use fill="none" stroke-opacity=".45" stroke-width="0" mask="url(&quot;#c&quot;)" xlink:href="#a"/><use fill="#fff" fill-opacity=".45" xlink:href="#a"/></g><use fill="#d28034" xlink:href="#a"/><use fill="#fff" fill-opacity=".85" xlink:href="#a"/></g></svg>